G04 #@! TF.GenerationSoftware,KiCad,Pcbnew,10.0.6*
G04 #@! TF.CreationDate,2026-09-02T03:31:27+08:00*
G04 #@! TF.ProjectId,'atmega328p-blink-board,2761746d-6567-4613-9332-38702d626c69,rev?*
G04 #@! TF.SameCoordinates,Original*
G04 #@! TF.FileFunction,Copper,L1,Top*
G04 #@! TF.FilePolarity,Positive*
%FSLAX46Y46*%
G04 Gerber Fmt 4.6, Leading zero omitted, Abs format (unit mm)*
G04 Created by KiCad (PCBNEW 10.0.6) date 2026-09-02 03:31:27*
%MOMM*%
%LPD*%
G01*
G04 APERTURE LIST*
G04 Aperture macros list*
%AMRoundRect*
0 Rectangle with rounded corners*
0 $1 Rounding radius*
0 $2 $3 $4 $5 $6 $7 $8 $9 X,Y pos of 4 corners*
0 Add a 4 corners polygon primitive as box body*
4,1,4,$2,$3,$4,$5,$6,$7,$8,$9,$2,$3,0*
0 Add four circle primitives for the rounded corners*
1,1,$1+$1,$2,$3*
1,1,$1+$1,$4,$5*
1,1,$1+$1,$6,$7*
1,1,$1+$1,$8,$9*
0 Add four rect primitives between the rounded corners*
20,1,$1+$1,$2,$3,$4,$5,0*
20,1,$1+$1,$4,$5,$6,$7,0*
20,1,$1+$1,$6,$7,$8,$9,0*
20,1,$1+$1,$8,$9,$2,$3,0*%
G04 Aperture macros list end*
%ADD10C,0.150000*%
G04 #@! TA.AperFunction,NonConductor*
%ADD11C,0.150000*%
G04 #@! TD*
G04 #@! TA.AperFunction,ComponentPad*
%ADD12RoundRect,0.190500X-0.444500X-0.444500X0.444500X-0.444500X0.444500X0.444500X-0.444500X0.444500X0*%
G04 #@! TD*
G04 #@! TA.AperFunction,ComponentPad*
%ADD13O,1.270000X1.270000*%
G04 #@! TD*
G04 #@! TA.AperFunction,ComponentPad*
%ADD14C,1.600000*%
G04 #@! TD*
G04 #@! TA.AperFunction,ComponentPad*
%ADD15C,1.270000*%
G04 #@! TD*
G04 #@! TA.AperFunction,ComponentPad*
%ADD16C,2.000000*%
G04 #@! TD*
G04 #@! TA.AperFunction,ComponentPad*
%ADD17R,1.800000X1.800000*%
G04 #@! TD*
G04 #@! TA.AperFunction,ComponentPad*
%ADD18C,1.800000*%
G04 #@! TD*
G04 #@! TA.AperFunction,ComponentPad*
%ADD19R,1.600000X1.600000*%
G04 #@! TD*
G04 #@! TA.AperFunction,ComponentPad*
%ADD20O,1.600000X1.600000*%
G04 #@! TD*
G04 #@! TA.AperFunction,ViaPad*
%ADD21C,0.600000*%
G04 #@! TD*
G04 #@! TA.AperFunction,Conductor*
%ADD22C,0.200000*%
G04 #@! TD*
G04 #@! TA.AperFunction,Conductor*
%ADD23C,0.400000*%
G04 #@! TD*
G04 APERTURE END LIST*
D10*
D11*
X74469819Y-103506077D02*
X75469819Y-103172744D01*
X75469819Y-103172744D02*
X74469819Y-102839411D01*
X75374580Y-101934649D02*
X75422200Y-101982268D01*
X75422200Y-101982268D02*
X75469819Y-102125125D01*
X75469819Y-102125125D02*
X75469819Y-102220363D01*
X75469819Y-102220363D02*
X75422200Y-102363220D01*
X75422200Y-102363220D02*
X75326961Y-102458458D01*
X75326961Y-102458458D02*
X75231723Y-102506077D01*
X75231723Y-102506077D02*
X75041247Y-102553696D01*
X75041247Y-102553696D02*
X74898390Y-102553696D01*
X74898390Y-102553696D02*
X74707914Y-102506077D01*
X74707914Y-102506077D02*
X74612676Y-102458458D01*
X74612676Y-102458458D02*
X74517438Y-102363220D01*
X74517438Y-102363220D02*
X74469819Y-102220363D01*
X74469819Y-102220363D02*
X74469819Y-102125125D01*
X74469819Y-102125125D02*
X74517438Y-101982268D01*
X74517438Y-101982268D02*
X74565057Y-101934649D01*
X75374580Y-100934649D02*
X75422200Y-100982268D01*
X75422200Y-100982268D02*
X75469819Y-101125125D01*
X75469819Y-101125125D02*
X75469819Y-101220363D01*
X75469819Y-101220363D02*
X75422200Y-101363220D01*
X75422200Y-101363220D02*
X75326961Y-101458458D01*
X75326961Y-101458458D02*
X75231723Y-101506077D01*
X75231723Y-101506077D02*
X75041247Y-101553696D01*
X75041247Y-101553696D02*
X74898390Y-101553696D01*
X74898390Y-101553696D02*
X74707914Y-101506077D01*
X74707914Y-101506077D02*
X74612676Y-101458458D01*
X74612676Y-101458458D02*
X74517438Y-101363220D01*
X74517438Y-101363220D02*
X74469819Y-101220363D01*
X74469819Y-101220363D02*
X74469819Y-101125125D01*
X74469819Y-101125125D02*
X74517438Y-100982268D01*
X74517438Y-100982268D02*
X74565057Y-100934649D01*
D10*
D11*
X72017438Y-102639411D02*
X71969819Y-102734649D01*
X71969819Y-102734649D02*
X71969819Y-102877506D01*
X71969819Y-102877506D02*
X72017438Y-103020363D01*
X72017438Y-103020363D02*
X72112676Y-103115601D01*
X72112676Y-103115601D02*
X72207914Y-103163220D01*
X72207914Y-103163220D02*
X72398390Y-103210839D01*
X72398390Y-103210839D02*
X72541247Y-103210839D01*
X72541247Y-103210839D02*
X72731723Y-103163220D01*
X72731723Y-103163220D02*
X72826961Y-103115601D01*
X72826961Y-103115601D02*
X72922200Y-103020363D01*
X72922200Y-103020363D02*
X72969819Y-102877506D01*
X72969819Y-102877506D02*
X72969819Y-102782268D01*
X72969819Y-102782268D02*
X72922200Y-102639411D01*
X72922200Y-102639411D02*
X72874580Y-102591792D01*
X72874580Y-102591792D02*
X72541247Y-102591792D01*
X72541247Y-102591792D02*
X72541247Y-102782268D01*
X72969819Y-102163220D02*
X71969819Y-102163220D01*
X71969819Y-102163220D02*
X72969819Y-101591792D01*
X72969819Y-101591792D02*
X71969819Y-101591792D01*
X72969819Y-101115601D02*
X71969819Y-101115601D01*
X71969819Y-101115601D02*
X71969819Y-100877506D01*
X71969819Y-100877506D02*
X72017438Y-100734649D01*
X72017438Y-100734649D02*
X72112676Y-100639411D01*
X72112676Y-100639411D02*
X72207914Y-100591792D01*
X72207914Y-100591792D02*
X72398390Y-100544173D01*
X72398390Y-100544173D02*
X72541247Y-100544173D01*
X72541247Y-100544173D02*
X72731723Y-100591792D01*
X72731723Y-100591792D02*
X72826961Y-100639411D01*
X72826961Y-100639411D02*
X72922200Y-100734649D01*
X72922200Y-100734649D02*
X72969819Y-100877506D01*
X72969819Y-100877506D02*
X72969819Y-101115601D01*
D10*
D11*
X70222200Y-102910839D02*
X70269819Y-102767982D01*
X70269819Y-102767982D02*
X70269819Y-102529887D01*
X70269819Y-102529887D02*
X70222200Y-102434649D01*
X70222200Y-102434649D02*
X70174580Y-102387030D01*
X70174580Y-102387030D02*
X70079342Y-102339411D01*
X70079342Y-102339411D02*
X69984104Y-102339411D01*
X69984104Y-102339411D02*
X69888866Y-102387030D01*
X69888866Y-102387030D02*
X69841247Y-102434649D01*
X69841247Y-102434649D02*
X69793628Y-102529887D01*
X69793628Y-102529887D02*
X69746009Y-102720363D01*
X69746009Y-102720363D02*
X69698390Y-102815601D01*
X69698390Y-102815601D02*
X69650771Y-102863220D01*
X69650771Y-102863220D02*
X69555533Y-102910839D01*
X69555533Y-102910839D02*
X69460295Y-102910839D01*
X69460295Y-102910839D02*
X69365057Y-102863220D01*
X69365057Y-102863220D02*
X69317438Y-102815601D01*
X69317438Y-102815601D02*
X69269819Y-102720363D01*
X69269819Y-102720363D02*
X69269819Y-102482268D01*
X69269819Y-102482268D02*
X69317438Y-102339411D01*
X70174580Y-101339411D02*
X70222200Y-101387030D01*
X70222200Y-101387030D02*
X70269819Y-101529887D01*
X70269819Y-101529887D02*
X70269819Y-101625125D01*
X70269819Y-101625125D02*
X70222200Y-101767982D01*
X70222200Y-101767982D02*
X70126961Y-101863220D01*
X70126961Y-101863220D02*
X70031723Y-101910839D01*
X70031723Y-101910839D02*
X69841247Y-101958458D01*
X69841247Y-101958458D02*
X69698390Y-101958458D01*
X69698390Y-101958458D02*
X69507914Y-101910839D01*
X69507914Y-101910839D02*
X69412676Y-101863220D01*
X69412676Y-101863220D02*
X69317438Y-101767982D01*
X69317438Y-101767982D02*
X69269819Y-101625125D01*
X69269819Y-101625125D02*
X69269819Y-101529887D01*
X69269819Y-101529887D02*
X69317438Y-101387030D01*
X69317438Y-101387030D02*
X69365057Y-101339411D01*
X70269819Y-100434649D02*
X70269819Y-100910839D01*
X70269819Y-100910839D02*
X69269819Y-100910839D01*
D10*
D11*
X67722200Y-102910839D02*
X67769819Y-102767982D01*
X67769819Y-102767982D02*
X67769819Y-102529887D01*
X67769819Y-102529887D02*
X67722200Y-102434649D01*
X67722200Y-102434649D02*
X67674580Y-102387030D01*
X67674580Y-102387030D02*
X67579342Y-102339411D01*
X67579342Y-102339411D02*
X67484104Y-102339411D01*
X67484104Y-102339411D02*
X67388866Y-102387030D01*
X67388866Y-102387030D02*
X67341247Y-102434649D01*
X67341247Y-102434649D02*
X67293628Y-102529887D01*
X67293628Y-102529887D02*
X67246009Y-102720363D01*
X67246009Y-102720363D02*
X67198390Y-102815601D01*
X67198390Y-102815601D02*
X67150771Y-102863220D01*
X67150771Y-102863220D02*
X67055533Y-102910839D01*
X67055533Y-102910839D02*
X66960295Y-102910839D01*
X66960295Y-102910839D02*
X66865057Y-102863220D01*
X66865057Y-102863220D02*
X66817438Y-102815601D01*
X66817438Y-102815601D02*
X66769819Y-102720363D01*
X66769819Y-102720363D02*
X66769819Y-102482268D01*
X66769819Y-102482268D02*
X66817438Y-102339411D01*
X67769819Y-101910839D02*
X66769819Y-101910839D01*
X66769819Y-101910839D02*
X66769819Y-101672744D01*
X66769819Y-101672744D02*
X66817438Y-101529887D01*
X66817438Y-101529887D02*
X66912676Y-101434649D01*
X66912676Y-101434649D02*
X67007914Y-101387030D01*
X67007914Y-101387030D02*
X67198390Y-101339411D01*
X67198390Y-101339411D02*
X67341247Y-101339411D01*
X67341247Y-101339411D02*
X67531723Y-101387030D01*
X67531723Y-101387030D02*
X67626961Y-101434649D01*
X67626961Y-101434649D02*
X67722200Y-101529887D01*
X67722200Y-101529887D02*
X67769819Y-101672744D01*
X67769819Y-101672744D02*
X67769819Y-101910839D01*
X67484104Y-100958458D02*
X67484104Y-100482268D01*
X67769819Y-101053696D02*
X66769819Y-100720363D01*
X66769819Y-100720363D02*
X67769819Y-100387030D01*
D10*
D11*
X65369819Y-102463220D02*
X64369819Y-102463220D01*
X65369819Y-101987030D02*
X64369819Y-101987030D01*
X64369819Y-101987030D02*
X65369819Y-101415602D01*
X65369819Y-101415602D02*
X64369819Y-101415602D01*
X64369819Y-101082268D02*
X64369819Y-100510840D01*
X65369819Y-100796554D02*
X64369819Y-100796554D01*
D12*
X75000000Y-99000000D03*
X72460000Y-99000000D03*
X69920000Y-99000000D03*
X67380000Y-99000000D03*
D13*
X64840000Y-99000000D03*
D14*
X123500000Y-84000000D03*
X123500000Y-79000000D03*
X115380000Y-67000000D03*
X123000000Y-67000000D03*
X118000000Y-78880000D03*
X118000000Y-86500000D03*
D12*
X84240000Y-66840000D03*
X79160000Y-66840000D03*
X74080000Y-66840000D03*
D15*
X69000000Y-66840000D03*
D16*
X136250000Y-83750000D03*
X129750000Y-83750000D03*
X136250000Y-79250000D03*
X129750000Y-79250000D03*
X136750000Y-94250000D03*
X130250000Y-94250000D03*
X136750000Y-89750000D03*
X130250000Y-89750000D03*
X136750000Y-106250000D03*
X130250000Y-106250000D03*
X136750000Y-101750000D03*
X130250000Y-101750000D03*
D14*
X117500000Y-97310000D03*
X117500000Y-89690000D03*
X117500000Y-109000000D03*
X117500000Y-101380000D03*
D17*
X130000000Y-70275000D03*
D18*
X130000000Y-67735000D03*
D14*
X123500000Y-90000000D03*
X123500000Y-95000000D03*
X123500000Y-101500000D03*
X123500000Y-106500000D03*
D19*
X110000000Y-105940000D03*
D20*
X110000000Y-103400000D03*
X110000000Y-100860000D03*
X110000000Y-98320000D03*
X110000000Y-95780000D03*
X110000000Y-93240000D03*
X110000000Y-90700000D03*
X110000000Y-88160000D03*
X110000000Y-85620000D03*
X110000000Y-83080000D03*
X110000000Y-80540000D03*
X110000000Y-78000000D03*
X110000000Y-75460000D03*
X110000000Y-72920000D03*
X110000000Y-70380000D03*
X94760000Y-70380000D03*
X94760000Y-72920000D03*
X94760000Y-75460000D03*
X94760000Y-78000000D03*
X94760000Y-80540000D03*
X94760000Y-83080000D03*
X94760000Y-85620000D03*
X94760000Y-88160000D03*
X94760000Y-90700000D03*
X94760000Y-93240000D03*
X94760000Y-95780000D03*
X94760000Y-98320000D03*
X94760000Y-100860000D03*
X94760000Y-103400000D03*
X94760000Y-105940000D03*
D21*
X84200000Y-88200000D03*
X79200000Y-90700000D03*
D22*
X68207389Y-96292611D02*
X68207389Y-98807611D01*
X68015000Y-99000000D02*
X67380000Y-99000000D01*
X76300000Y-88200000D02*
X68207389Y-96292611D01*
X68207389Y-98807611D02*
X68015000Y-99000000D01*
X84200000Y-88200000D02*
X76300000Y-88200000D01*
X70555000Y-99000000D02*
X69920000Y-99000000D01*
X70707389Y-98847611D02*
X70555000Y-99000000D01*
X70707389Y-96195385D02*
X70707389Y-98847611D01*
X76202774Y-90700000D02*
X70707389Y-96195385D01*
X79200000Y-90700000D02*
X76202774Y-90700000D01*
D23*
X94080000Y-99000000D02*
X75000000Y-99000000D01*
X94760000Y-98320000D02*
X94080000Y-99000000D01*
D22*
X118000000Y-82700000D02*
X110000000Y-90700000D01*
X118000000Y-78880000D02*
X118000000Y-82700000D01*
X111900000Y-95780000D02*
X117500000Y-101380000D01*
X110000000Y-95780000D02*
X111900000Y-95780000D01*
X113950000Y-93240000D02*
X117500000Y-89690000D01*
X110000000Y-93240000D02*
X113950000Y-93240000D01*
X105440000Y-109000000D02*
X117500000Y-109000000D01*
X94760000Y-98320000D02*
X105440000Y-109000000D01*
X130250000Y-101750000D02*
X136750000Y-101750000D01*
X123850000Y-101750000D02*
X130250000Y-101750000D01*
X123600000Y-101500000D02*
X123850000Y-101750000D01*
X123500000Y-101500000D02*
X123600000Y-101500000D01*
X123380000Y-101380000D02*
X123500000Y-101500000D01*
X117500000Y-101380000D02*
X123380000Y-101380000D01*
X130250000Y-89750000D02*
X136750000Y-89750000D01*
X130000000Y-90000000D02*
X130250000Y-89750000D01*
X123500000Y-90000000D02*
X130000000Y-90000000D01*
X123190000Y-89690000D02*
X123500000Y-90000000D01*
X117500000Y-89690000D02*
X123190000Y-89690000D01*
X129750000Y-79250000D02*
X136250000Y-79250000D01*
X123850000Y-79250000D02*
X129750000Y-79250000D01*
X123600000Y-79000000D02*
X123850000Y-79250000D01*
X123500000Y-79000000D02*
X123600000Y-79000000D01*
X118000000Y-78880000D02*
X123380000Y-78880000D01*
X123380000Y-78880000D02*
X123500000Y-79000000D01*
X129265000Y-67000000D02*
X130000000Y-67735000D01*
X123000000Y-67000000D02*
X129265000Y-67000000D01*
X112000000Y-70380000D02*
X115380000Y-67000000D01*
X110000000Y-70380000D02*
X112000000Y-70380000D01*
X79200000Y-90700000D02*
X94760000Y-90700000D01*
X84200000Y-88200000D02*
X85220000Y-88200000D01*
X85220000Y-88200000D02*
X85260000Y-88160000D01*
X85260000Y-88160000D02*
X94760000Y-88160000D01*
G04 #@! TA.AperFunction,Conductor*
G36*
X138442539Y-63520185D02*
G01*
X138488294Y-63572989D01*
X138499500Y-63624500D01*
X138499500Y-111375500D01*
X138479815Y-111442539D01*
X138427011Y-111488294D01*
X138375500Y-111499500D01*
X61624500Y-111499500D01*
X61557461Y-111479815D01*
X61511706Y-111427011D01*
X61500500Y-111375500D01*
X61500500Y-98910634D01*
X63704500Y-98910634D01*
X63704500Y-99089366D01*
X63718273Y-99176327D01*
X63732460Y-99265898D01*
X63732460Y-99265901D01*
X63787689Y-99435878D01*
X63787691Y-99435881D01*
X63868833Y-99595132D01*
X63966951Y-99730179D01*
X63969331Y-99733454D01*
X63992811Y-99799260D01*
X63976986Y-99867314D01*
X63926880Y-99916009D01*
X63869013Y-99930340D01*
X63788076Y-99930340D01*
X63788076Y-103043720D01*
X65951562Y-103043720D01*
X65976782Y-103018500D01*
X66038105Y-102985015D01*
X66107797Y-102989999D01*
X66163730Y-103031871D01*
X66188147Y-103097335D01*
X66188463Y-103106181D01*
X66188463Y-103492195D01*
X68351175Y-103492195D01*
X68351175Y-99943526D01*
X68369058Y-99879376D01*
X68385257Y-99852579D01*
X68459251Y-99730178D01*
X68509173Y-99569971D01*
X68515500Y-99500347D01*
X68515499Y-99400095D01*
X68535183Y-99333058D01*
X68551815Y-99312419D01*
X68572812Y-99291422D01*
X68583874Y-99285380D01*
X68598117Y-99275115D01*
X68598123Y-99275112D01*
X68599099Y-99277065D01*
X68634133Y-99257933D01*
X68703825Y-99262912D01*
X68759762Y-99304779D01*
X68784183Y-99370242D01*
X68784500Y-99379096D01*
X68784500Y-99500354D01*
X68790825Y-99569966D01*
X68790828Y-99569977D01*
X68829244Y-99693259D01*
X68830396Y-99763119D01*
X68793595Y-99822511D01*
X68730526Y-99852579D01*
X68710859Y-99854149D01*
X68688463Y-99854149D01*
X68688463Y-103492195D01*
X70851175Y-103492195D01*
X70851175Y-99986409D01*
X70870860Y-99919370D01*
X70887494Y-99898728D01*
X70891175Y-99895047D01*
X70912439Y-99873783D01*
X70915915Y-99868034D01*
X70953612Y-99805674D01*
X70999251Y-99730178D01*
X71049173Y-99569971D01*
X71055500Y-99500347D01*
X71055499Y-99400097D01*
X71075183Y-99333060D01*
X71091816Y-99312419D01*
X71099952Y-99304283D01*
X71113318Y-99290915D01*
X71174639Y-99257430D01*
X71244331Y-99262413D01*
X71300265Y-99304283D01*
X71324684Y-99369747D01*
X71325000Y-99378595D01*
X71325000Y-99500308D01*
X71331321Y-99569875D01*
X71331323Y-99569883D01*
X71381207Y-99729968D01*
X71421089Y-99795941D01*
X71438924Y-99863496D01*
X71417406Y-99929970D01*
X71402653Y-99947770D01*
X71388076Y-99962347D01*
X71388076Y-99962348D01*
X71388076Y-103792664D01*
X73551562Y-103792664D01*
X73551562Y-99962348D01*
X73524746Y-99935532D01*
X73491261Y-99874209D01*
X73496245Y-99804517D01*
X73506310Y-99783702D01*
X73538789Y-99729973D01*
X73588677Y-99569876D01*
X73595000Y-99500298D01*
X73595000Y-99250000D01*
X72775686Y-99250000D01*
X72780080Y-99245606D01*
X72832741Y-99154394D01*
X72860000Y-99052661D01*
X72860000Y-98947339D01*
X72832741Y-98845606D01*
X72780080Y-98754394D01*
X72775686Y-98750000D01*
X73594999Y-98750000D01*
X73594999Y-98499691D01*
X73588678Y-98430124D01*
X73588676Y-98430116D01*
X73538791Y-98270029D01*
X73538790Y-98270027D01*
X73452045Y-98126532D01*
X73452042Y-98126528D01*
X73333471Y-98007957D01*
X73333467Y-98007954D01*
X73189973Y-97921210D01*
X73029876Y-97871322D01*
X72960298Y-97865000D01*
X72710000Y-97865000D01*
X72710000Y-98684314D01*
X72705606Y-98679920D01*
X72614394Y-98627259D01*
X72512661Y-98600000D01*
X72407339Y-98600000D01*
X72305606Y-98627259D01*
X72214394Y-98679920D01*
X72210000Y-98684314D01*
X72210000Y-97865000D01*
X71959691Y-97865000D01*
X71890123Y-97871321D01*
X71890116Y-97871323D01*
X71730029Y-97921208D01*
X71730027Y-97921209D01*
X71586532Y-98007954D01*
X71586528Y-98007957D01*
X71519570Y-98074916D01*
X71458247Y-98108401D01*
X71388555Y-98103417D01*
X71332622Y-98061545D01*
X71308205Y-97996081D01*
X71307889Y-97987235D01*
X71307889Y-96495482D01*
X71327574Y-96428443D01*
X71344208Y-96407801D01*
X76415190Y-91336819D01*
X76476513Y-91303334D01*
X76502871Y-91300500D01*
X78620234Y-91300500D01*
X78687273Y-91320185D01*
X78689125Y-91321398D01*
X78820814Y-91409390D01*
X78820827Y-91409397D01*
X78966498Y-91469735D01*
X78966503Y-91469737D01*
X79121153Y-91500499D01*
X79121156Y-91500500D01*
X79121158Y-91500500D01*
X79278844Y-91500500D01*
X79278845Y-91500499D01*
X79433497Y-91469737D01*
X79579179Y-91409394D01*
X79640823Y-91368205D01*
X79710875Y-91321398D01*
X79777553Y-91300520D01*
X79779766Y-91300500D01*
X93530398Y-91300500D01*
X93597437Y-91320185D01*
X93640883Y-91368205D01*
X93647715Y-91381614D01*
X93768028Y-91547213D01*
X93912786Y-91691971D01*
X94067749Y-91804556D01*
X94078390Y-91812287D01*
X94169840Y-91858883D01*
X94171080Y-91859515D01*
X94221876Y-91907490D01*
X94238671Y-91975311D01*
X94216134Y-92041446D01*
X94171080Y-92080485D01*
X94078386Y-92127715D01*
X93912786Y-92248028D01*
X93768028Y-92392786D01*
X93647715Y-92558386D01*
X93554781Y-92740776D01*
X93491522Y-92935465D01*
X93459500Y-93137648D01*
X93459500Y-93342351D01*
X93491522Y-93544534D01*
X93554781Y-93739223D01*
X93606385Y-93840500D01*
X93647159Y-93920523D01*
X93647715Y-93921613D01*
X93768028Y-94087213D01*
X93912786Y-94231971D01*
X94032084Y-94318644D01*
X94078390Y-94352287D01*
X94169840Y-94398883D01*
X94171080Y-94399515D01*
X94221876Y-94447490D01*
X94238671Y-94515311D01*
X94216134Y-94581446D01*
X94171080Y-94620485D01*
X94078386Y-94667715D01*
X93912786Y-94788028D01*
X93768028Y-94932786D01*
X93647715Y-95098386D01*
X93554781Y-95280776D01*
X93491522Y-95475465D01*
X93459500Y-95677648D01*
X93459500Y-95882351D01*
X93491522Y-96084534D01*
X93554781Y-96279223D01*
X93606385Y-96380500D01*
X93638801Y-96444120D01*
X93647715Y-96461613D01*
X93768028Y-96627213D01*
X93912786Y-96771971D01*
X94067749Y-96884556D01*
X94078390Y-96892287D01*
X94169840Y-96938883D01*
X94171080Y-96939515D01*
X94221876Y-96987490D01*
X94238671Y-97055311D01*
X94216134Y-97121446D01*
X94171080Y-97160485D01*
X94078386Y-97207715D01*
X93912786Y-97328028D01*
X93768028Y-97472786D01*
X93647715Y-97638386D01*
X93554781Y-97820776D01*
X93491522Y-98015465D01*
X93463103Y-98194898D01*
X93433174Y-98258033D01*
X93373862Y-98294964D01*
X93340630Y-98299500D01*
X76167128Y-98299500D01*
X76100089Y-98279815D01*
X76061011Y-98239649D01*
X75992442Y-98126221D01*
X75992439Y-98126217D01*
X75873782Y-98007560D01*
X75873777Y-98007556D01*
X75730180Y-97920750D01*
X75730179Y-97920749D01*
X75730178Y-97920749D01*
X75569971Y-97870827D01*
X75569969Y-97870826D01*
X75569967Y-97870826D01*
X75521221Y-97866396D01*
X75500347Y-97864500D01*
X75500344Y-97864500D01*
X74499645Y-97864500D01*
X74430033Y-97870825D01*
X74430022Y-97870828D01*
X74269824Y-97920747D01*
X74269820Y-97920749D01*
X74126222Y-98007556D01*
X74126217Y-98007560D01*
X74007560Y-98126217D01*
X74007556Y-98126222D01*
X73920750Y-98269819D01*
X73920749Y-98269821D01*
X73920749Y-98269822D01*
X73917635Y-98279815D01*
X73870826Y-98430032D01*
X73864500Y-98499655D01*
X73864500Y-99500354D01*
X73870825Y-99569966D01*
X73870828Y-99569977D01*
X73920747Y-99730175D01*
X73920749Y-99730179D01*
X74007556Y-99873777D01*
X74007560Y-99873782D01*
X74126217Y-99992439D01*
X74126222Y-99992443D01*
X74246815Y-100065343D01*
X74269822Y-100079251D01*
X74374161Y-100111764D01*
X74432308Y-100150501D01*
X74460282Y-100214526D01*
X74449201Y-100283511D01*
X74402582Y-100335555D01*
X74337270Y-100354149D01*
X73888463Y-100354149D01*
X73888463Y-104087433D01*
X76051175Y-104087433D01*
X76051175Y-100354149D01*
X75662732Y-100354149D01*
X75595693Y-100334464D01*
X75549938Y-100281660D01*
X75539994Y-100212502D01*
X75569019Y-100148946D01*
X75625841Y-100111764D01*
X75695077Y-100090188D01*
X75730178Y-100079251D01*
X75840125Y-100012786D01*
X75873777Y-99992443D01*
X75873778Y-99992441D01*
X75873783Y-99992439D01*
X75992439Y-99873783D01*
X76061011Y-99760351D01*
X76112538Y-99713163D01*
X76167128Y-99700500D01*
X93780953Y-99700500D01*
X93847992Y-99720185D01*
X93893747Y-99772989D01*
X93903691Y-99842147D01*
X93874666Y-99905703D01*
X93868634Y-99912181D01*
X93768032Y-100012782D01*
X93768028Y-100012786D01*
X93647715Y-100178386D01*
X93554781Y-100360776D01*
X93491522Y-100555465D01*
X93464135Y-100728384D01*
X93459500Y-100757648D01*
X93459500Y-100962352D01*
X93463703Y-100988888D01*
X93491522Y-101164534D01*
X93554781Y-101359223D01*
X93647715Y-101541613D01*
X93768028Y-101707213D01*
X93912786Y-101851971D01*
X94067749Y-101964556D01*
X94078390Y-101972287D01*
X94127695Y-101997409D01*
X94171629Y-102019795D01*
X94222425Y-102067770D01*
X94239220Y-102135591D01*
X94216682Y-102201726D01*
X94171629Y-102240765D01*
X94078650Y-102288140D01*
X93913105Y-102408417D01*
X93913104Y-102408417D01*
X93768417Y-102553104D01*
X93768417Y-102553105D01*
X93648140Y-102718650D01*
X93555244Y-102900970D01*
X93492009Y-103095586D01*
X93483391Y-103150000D01*
X94326988Y-103150000D01*
X94294075Y-103207007D01*
X94260000Y-103334174D01*
X94260000Y-103465826D01*
X94294075Y-103592993D01*
X94326988Y-103650000D01*
X93483391Y-103650000D01*
X93492009Y-103704413D01*
X93555244Y-103899029D01*
X93648140Y-104081349D01*
X93768417Y-104246894D01*
X93768417Y-104246895D01*
X93913104Y-104391582D01*
X94078652Y-104511861D01*
X94171628Y-104559234D01*
X94222425Y-104607208D01*
X94239220Y-104675029D01*
X94216683Y-104741164D01*
X94171630Y-104780203D01*
X94078388Y-104827713D01*
X93912786Y-104948028D01*
X93768028Y-105092786D01*
X93647715Y-105258386D01*
X93554781Y-105440776D01*
X93491522Y-105635465D01*
X93459500Y-105837648D01*
X93459500Y-106042351D01*
X93491522Y-106244534D01*
X93554781Y-106439223D01*
X93647715Y-106621613D01*
X93768028Y-106787213D01*
X93912786Y-106931971D01*
X94056197Y-107036163D01*
X94078390Y-107052287D01*
X94167212Y-107097544D01*
X94260776Y-107145218D01*
X94260778Y-107145218D01*
X94260781Y-107145220D01*
X94365137Y-107179127D01*
X94455465Y-107208477D01*
X94556557Y-107224488D01*
X94657648Y-107240500D01*
X94657649Y-107240500D01*
X94862351Y-107240500D01*
X94862352Y-107240500D01*
X95064534Y-107208477D01*
X95259219Y-107145220D01*
X95441610Y-107052287D01*
X95537901Y-106982328D01*
X95607213Y-106931971D01*
X95607215Y-106931968D01*
X95607219Y-106931966D01*
X95751966Y-106787219D01*
X95751968Y-106787215D01*
X95751971Y-106787213D01*
X95848468Y-106654394D01*
X95872287Y-106621610D01*
X95965220Y-106439219D01*
X96028477Y-106244534D01*
X96060500Y-106042352D01*
X96060500Y-105837648D01*
X96057490Y-105818644D01*
X96028477Y-105635465D01*
X95965218Y-105440776D01*
X95931503Y-105374607D01*
X95872287Y-105258390D01*
X95829865Y-105200000D01*
X95751971Y-105092786D01*
X95607213Y-104948028D01*
X95441611Y-104827713D01*
X95348369Y-104780203D01*
X95297574Y-104732229D01*
X95280779Y-104664407D01*
X95303317Y-104598273D01*
X95348371Y-104559234D01*
X95441347Y-104511861D01*
X95606894Y-104391582D01*
X95606895Y-104391582D01*
X95751582Y-104246895D01*
X95751582Y-104246894D01*
X95871859Y-104081349D01*
X95964755Y-103899029D01*
X96027990Y-103704413D01*
X96036609Y-103650000D01*
X95193012Y-103650000D01*
X95225925Y-103592993D01*
X95260000Y-103465826D01*
X95260000Y-103334174D01*
X95225925Y-103207007D01*
X95193012Y-103150000D01*
X96036609Y-103150000D01*
X96027990Y-103095586D01*
X95964755Y-102900970D01*
X95871859Y-102718650D01*
X95751582Y-102553105D01*
X95751582Y-102553104D01*
X95606895Y-102408417D01*
X95441349Y-102288140D01*
X95348370Y-102240765D01*
X95297574Y-102192790D01*
X95280779Y-102124969D01*
X95303316Y-102058835D01*
X95348370Y-102019795D01*
X95348920Y-102019515D01*
X95441610Y-101972287D01*
X95569703Y-101879223D01*
X95607213Y-101851971D01*
X95607215Y-101851968D01*
X95607219Y-101851966D01*
X95751966Y-101707219D01*
X95751968Y-101707215D01*
X95751971Y-101707213D01*
X95806687Y-101631902D01*
X95872287Y-101541610D01*
X95965220Y-101359219D01*
X96028477Y-101164534D01*
X96060500Y-100962352D01*
X96060500Y-100769097D01*
X96080185Y-100702058D01*
X96132989Y-100656303D01*
X96202147Y-100646359D01*
X96265703Y-100675384D01*
X96272181Y-100681416D01*
X104955139Y-109364374D01*
X104955149Y-109364385D01*
X104959479Y-109368715D01*
X104959480Y-109368716D01*
X105071284Y-109480520D01*
X105158095Y-109530639D01*
X105158097Y-109530641D01*
X105196151Y-109552611D01*
X105208215Y-109559577D01*
X105360943Y-109600501D01*
X105360946Y-109600501D01*
X105526653Y-109600501D01*
X105526669Y-109600500D01*
X116270398Y-109600500D01*
X116337437Y-109620185D01*
X116380883Y-109668205D01*
X116387715Y-109681614D01*
X116508028Y-109847213D01*
X116652786Y-109991971D01*
X116807749Y-110104556D01*
X116818390Y-110112287D01*
X116934607Y-110171503D01*
X117000776Y-110205218D01*
X117000778Y-110205218D01*
X117000781Y-110205220D01*
X117105137Y-110239127D01*
X117195465Y-110268477D01*
X117296557Y-110284488D01*
X117397648Y-110300500D01*
X117397649Y-110300500D01*
X117602351Y-110300500D01*
X117602352Y-110300500D01*
X117804534Y-110268477D01*
X117999219Y-110205220D01*
X118181610Y-110112287D01*
X118274590Y-110044732D01*
X118347213Y-109991971D01*
X118347215Y-109991968D01*
X118347219Y-109991966D01*
X118491966Y-109847219D01*
X118491968Y-109847215D01*
X118491971Y-109847213D01*
X118544732Y-109774590D01*
X118612287Y-109681610D01*
X118705220Y-109499219D01*
X118768477Y-109304534D01*
X118800500Y-109102352D01*
X118800500Y-108897648D01*
X118768477Y-108695466D01*
X118705220Y-108500781D01*
X118705218Y-108500778D01*
X118705218Y-108500776D01*
X118671503Y-108434607D01*
X118612287Y-108318390D01*
X118604556Y-108307749D01*
X118491971Y-108152786D01*
X118347213Y-108008028D01*
X118181613Y-107887715D01*
X118181612Y-107887714D01*
X118181610Y-107887713D01*
X118124653Y-107858691D01*
X117999223Y-107794781D01*
X117804534Y-107731522D01*
X117629995Y-107703878D01*
X117602352Y-107699500D01*
X117397648Y-107699500D01*
X117373329Y-107703351D01*
X117195465Y-107731522D01*
X117000776Y-107794781D01*
X116818386Y-107887715D01*
X116652786Y-108008028D01*
X116508028Y-108152786D01*
X116387715Y-108318385D01*
X116380883Y-108331795D01*
X116332909Y-108382591D01*
X116270398Y-108399500D01*
X105740097Y-108399500D01*
X105673058Y-108379815D01*
X105652416Y-108363181D01*
X96054077Y-98764842D01*
X96020592Y-98703519D01*
X96023828Y-98638841D01*
X96028477Y-98624534D01*
X96060500Y-98422352D01*
X96060500Y-98217648D01*
X96037893Y-98074916D01*
X96028477Y-98015465D01*
X95981481Y-97870827D01*
X95965220Y-97820781D01*
X95965218Y-97820778D01*
X95965218Y-97820776D01*
X95872419Y-97638650D01*
X95872287Y-97638390D01*
X95854955Y-97614534D01*
X95751971Y-97472786D01*
X95607213Y-97328028D01*
X95441614Y-97207715D01*
X95435006Y-97204348D01*
X95348917Y-97160483D01*
X95298123Y-97112511D01*
X95281328Y-97044690D01*
X95303865Y-96978555D01*
X95348917Y-96939516D01*
X95441610Y-96892287D01*
X95462770Y-96876913D01*
X95607213Y-96771971D01*
X95607215Y-96771968D01*
X95607219Y-96771966D01*
X95751966Y-96627219D01*
X95751968Y-96627215D01*
X95751971Y-96627213D01*
X95840743Y-96505027D01*
X95872287Y-96461610D01*
X95965220Y-96279219D01*
X96028477Y-96084534D01*
X96060500Y-95882352D01*
X96060500Y-95677648D01*
X96037576Y-95532914D01*
X96028477Y-95475465D01*
X95971296Y-95299481D01*
X95965220Y-95280781D01*
X95965218Y-95280778D01*
X95965218Y-95280776D01*
X95931503Y-95214607D01*
X95872287Y-95098390D01*
X95864556Y-95087749D01*
X95751971Y-94932786D01*
X95607213Y-94788028D01*
X95441614Y-94667715D01*
X95399871Y-94646446D01*
X95348917Y-94620483D01*
X95298123Y-94572511D01*
X95281328Y-94504690D01*
X95303865Y-94438555D01*
X95348917Y-94399516D01*
X95441610Y-94352287D01*
X95549258Y-94274077D01*
X95607213Y-94231971D01*
X95607215Y-94231968D01*
X95607219Y-94231966D01*
X95751966Y-94087219D01*
X95751968Y-94087215D01*
X95751971Y-94087213D01*
X95804732Y-94014590D01*
X95872287Y-93921610D01*
X95965220Y-93739219D01*
X96028477Y-93544534D01*
X96060500Y-93342352D01*
X96060500Y-93137648D01*
X96043029Y-93027340D01*
X96028477Y-92935465D01*
X95965218Y-92740776D01*
X95931503Y-92674607D01*
X95872287Y-92558390D01*
X95864556Y-92547749D01*
X95751971Y-92392786D01*
X95607213Y-92248028D01*
X95441614Y-92127715D01*
X95435006Y-92124348D01*
X95348917Y-92080483D01*
X95298123Y-92032511D01*
X95281328Y-91964690D01*
X95303865Y-91898555D01*
X95348917Y-91859516D01*
X95441610Y-91812287D01*
X95462770Y-91796913D01*
X95607213Y-91691971D01*
X95607215Y-91691968D01*
X95607219Y-91691966D01*
X95751966Y-91547219D01*
X95751968Y-91547215D01*
X95751971Y-91547213D01*
X95808259Y-91469738D01*
X95872287Y-91381610D01*
X95965220Y-91199219D01*
X96028477Y-91004534D01*
X96060500Y-90802352D01*
X96060500Y-90597648D01*
X96050804Y-90536433D01*
X96028477Y-90395465D01*
X95994371Y-90290500D01*
X95965220Y-90200781D01*
X95965218Y-90200778D01*
X95965218Y-90200776D01*
X95914566Y-90101368D01*
X95872287Y-90018390D01*
X95852098Y-89990602D01*
X95751971Y-89852786D01*
X95607213Y-89708028D01*
X95441614Y-89587715D01*
X95435006Y-89584348D01*
X95348917Y-89540483D01*
X95298123Y-89492511D01*
X95281328Y-89424690D01*
X95303865Y-89358555D01*
X95348917Y-89319516D01*
X95441610Y-89272287D01*
X95462770Y-89256913D01*
X95607213Y-89151971D01*
X95607215Y-89151968D01*
X95607219Y-89151966D01*
X95751966Y-89007219D01*
X95751968Y-89007215D01*
X95751971Y-89007213D01*
X95838791Y-88887713D01*
X95872287Y-88841610D01*
X95965220Y-88659219D01*
X96028477Y-88464534D01*
X96060500Y-88262352D01*
X96060500Y-88057648D01*
X96028477Y-87855466D01*
X96020620Y-87831286D01*
X95979658Y-87705218D01*
X95965220Y-87660781D01*
X95965218Y-87660778D01*
X95965218Y-87660776D01*
X95923148Y-87578211D01*
X95872287Y-87478390D01*
X95814971Y-87399500D01*
X95751971Y-87312786D01*
X95607213Y-87168028D01*
X95441614Y-87047715D01*
X95435006Y-87044348D01*
X95348917Y-87000483D01*
X95298123Y-86952511D01*
X95281328Y-86884690D01*
X95303865Y-86818555D01*
X95348917Y-86779516D01*
X95441610Y-86732287D01*
X95462770Y-86716913D01*
X95607213Y-86611971D01*
X95607215Y-86611968D01*
X95607219Y-86611966D01*
X95751966Y-86467219D01*
X95751968Y-86467215D01*
X95751971Y-86467213D01*
X95804732Y-86394590D01*
X95872287Y-86301610D01*
X95965220Y-86119219D01*
X96028477Y-85924534D01*
X96060500Y-85722352D01*
X96060500Y-85517648D01*
X96028477Y-85315466D01*
X95965220Y-85120781D01*
X95965218Y-85120778D01*
X95965218Y-85120776D01*
X95920449Y-85032914D01*
X95872287Y-84938390D01*
X95864556Y-84927749D01*
X95751971Y-84772786D01*
X95607213Y-84628028D01*
X95441614Y-84507715D01*
X95424571Y-84499031D01*
X95348917Y-84460483D01*
X95298123Y-84412511D01*
X95281328Y-84344690D01*
X95303865Y-84278555D01*
X95348917Y-84239516D01*
X95441610Y-84192287D01*
X95493766Y-84154394D01*
X95607213Y-84071971D01*
X95607215Y-84071968D01*
X95607219Y-84071966D01*
X95751966Y-83927219D01*
X95751968Y-83927215D01*
X95751971Y-83927213D01*
X95828114Y-83822409D01*
X95872287Y-83761610D01*
X95965220Y-83579219D01*
X96028477Y-83384534D01*
X96060500Y-83182352D01*
X96060500Y-82977648D01*
X96046323Y-82888141D01*
X96028477Y-82775465D01*
X95965218Y-82580776D01*
X95907288Y-82467084D01*
X95872287Y-82398390D01*
X95864556Y-82387749D01*
X95751971Y-82232786D01*
X95607213Y-82088028D01*
X95441614Y-81967715D01*
X95435006Y-81964348D01*
X95348917Y-81920483D01*
X95298123Y-81872511D01*
X95281328Y-81804690D01*
X95303865Y-81738555D01*
X95348917Y-81699516D01*
X95441610Y-81652287D01*
X95462770Y-81636913D01*
X95607213Y-81531971D01*
X95607215Y-81531968D01*
X95607219Y-81531966D01*
X95751966Y-81387219D01*
X95751968Y-81387215D01*
X95751971Y-81387213D01*
X95804732Y-81314590D01*
X95872287Y-81221610D01*
X95965220Y-81039219D01*
X96028477Y-80844534D01*
X96060500Y-80642352D01*
X96060500Y-80437648D01*
X96028477Y-80235466D01*
X96025892Y-80227511D01*
X96008910Y-80175245D01*
X95965220Y-80040781D01*
X95965217Y-80040777D01*
X95965217Y-80040774D01*
X95886772Y-79886819D01*
X95872287Y-79858390D01*
X95848749Y-79825992D01*
X95751971Y-79692786D01*
X95607213Y-79548028D01*
X95441614Y-79427715D01*
X95435006Y-79424348D01*
X95348917Y-79380483D01*
X95298123Y-79332511D01*
X95281328Y-79264690D01*
X95303865Y-79198555D01*
X95348917Y-79159516D01*
X95441610Y-79112287D01*
X95462770Y-79096913D01*
X95607213Y-78991971D01*
X95607215Y-78991968D01*
X95607219Y-78991966D01*
X95751966Y-78847219D01*
X95751968Y-78847215D01*
X95751971Y-78847213D01*
X95804732Y-78774590D01*
X95872287Y-78681610D01*
X95965220Y-78499219D01*
X96028477Y-78304534D01*
X96060500Y-78102352D01*
X96060500Y-77897648D01*
X96028477Y-77695466D01*
X95965220Y-77500781D01*
X95965218Y-77500778D01*
X95965218Y-77500776D01*
X95931503Y-77434607D01*
X95872287Y-77318390D01*
X95864556Y-77307749D01*
X95751971Y-77152786D01*
X95607213Y-77008028D01*
X95441614Y-76887715D01*
X95435006Y-76884348D01*
X95348917Y-76840483D01*
X95298123Y-76792511D01*
X95281328Y-76724690D01*
X95303865Y-76658555D01*
X95348917Y-76619516D01*
X95441610Y-76572287D01*
X95462770Y-76556913D01*
X95607213Y-76451971D01*
X95607215Y-76451968D01*
X95607219Y-76451966D01*
X95751966Y-76307219D01*
X95751968Y-76307215D01*
X95751971Y-76307213D01*
X95804732Y-76234590D01*
X95872287Y-76141610D01*
X95965220Y-75959219D01*
X96028477Y-75764534D01*
X96060500Y-75562352D01*
X96060500Y-75357648D01*
X96028477Y-75155466D01*
X95965220Y-74960781D01*
X95965218Y-74960778D01*
X95965218Y-74960776D01*
X95931503Y-74894607D01*
X95872287Y-74778390D01*
X95864556Y-74767749D01*
X95751971Y-74612786D01*
X95607213Y-74468028D01*
X95441614Y-74347715D01*
X95435006Y-74344348D01*
X95348917Y-74300483D01*
X95298123Y-74252511D01*
X95281328Y-74184690D01*
X95303865Y-74118555D01*
X95348917Y-74079516D01*
X95441610Y-74032287D01*
X95462770Y-74016913D01*
X95607213Y-73911971D01*
X95607215Y-73911968D01*
X95607219Y-73911966D01*
X95751966Y-73767219D01*
X95751968Y-73767215D01*
X95751971Y-73767213D01*
X95804732Y-73694590D01*
X95872287Y-73601610D01*
X95965220Y-73419219D01*
X96028477Y-73224534D01*
X96060500Y-73022352D01*
X96060500Y-72817648D01*
X96028477Y-72615466D01*
X95965220Y-72420781D01*
X95965218Y-72420778D01*
X95965218Y-72420776D01*
X95931503Y-72354607D01*
X95872287Y-72238390D01*
X95864556Y-72227749D01*
X95751971Y-72072786D01*
X95607213Y-71928028D01*
X95441614Y-71807715D01*
X95435006Y-71804348D01*
X95348917Y-71760483D01*
X95298123Y-71712511D01*
X95281328Y-71644690D01*
X95303865Y-71578555D01*
X95348917Y-71539516D01*
X95441610Y-71492287D01*
X95545107Y-71417093D01*
X95607213Y-71371971D01*
X95607215Y-71371968D01*
X95607219Y-71371966D01*
X95751966Y-71227219D01*
X95751968Y-71227215D01*
X95751971Y-71227213D01*
X95804732Y-71154590D01*
X95872287Y-71061610D01*
X95965220Y-70879219D01*
X96028477Y-70684534D01*
X96060500Y-70482352D01*
X96060500Y-70277648D01*
X108699500Y-70277648D01*
X108699500Y-70482351D01*
X108731522Y-70684534D01*
X108794781Y-70879223D01*
X108887715Y-71061613D01*
X109008028Y-71227213D01*
X109152786Y-71371971D01*
X109307749Y-71484556D01*
X109318390Y-71492287D01*
X109396698Y-71532187D01*
X109411080Y-71539515D01*
X109461876Y-71587490D01*
X109478671Y-71655311D01*
X109456134Y-71721446D01*
X109411080Y-71760485D01*
X109318386Y-71807715D01*
X109152786Y-71928028D01*
X109008028Y-72072786D01*
X108887715Y-72238386D01*
X108794781Y-72420776D01*
X108731522Y-72615465D01*
X108699500Y-72817648D01*
X108699500Y-73022351D01*
X108731522Y-73224534D01*
X108794781Y-73419223D01*
X108887715Y-73601613D01*
X109008028Y-73767213D01*
X109152786Y-73911971D01*
X109307749Y-74024556D01*
X109318390Y-74032287D01*
X109409840Y-74078883D01*
X109411080Y-74079515D01*
X109461876Y-74127490D01*
X109478671Y-74195311D01*
X109456134Y-74261446D01*
X109411080Y-74300485D01*
X109318386Y-74347715D01*
X109152786Y-74468028D01*
X109008028Y-74612786D01*
X108887715Y-74778386D01*
X108794781Y-74960776D01*
X108731522Y-75155465D01*
X108699500Y-75357648D01*
X108699500Y-75562351D01*
X108731522Y-75764534D01*
X108794781Y-75959223D01*
X108887715Y-76141613D01*
X109008028Y-76307213D01*
X109152786Y-76451971D01*
X109307749Y-76564556D01*
X109318390Y-76572287D01*
X109409840Y-76618883D01*
X109411080Y-76619515D01*
X109461876Y-76667490D01*
X109478671Y-76735311D01*
X109456134Y-76801446D01*
X109411080Y-76840485D01*
X109318386Y-76887715D01*
X109152786Y-77008028D01*
X109008028Y-77152786D01*
X108887715Y-77318386D01*
X108794781Y-77500776D01*
X108731522Y-77695465D01*
X108699500Y-77897648D01*
X108699500Y-78102351D01*
X108731522Y-78304534D01*
X108794781Y-78499223D01*
X108887715Y-78681613D01*
X109008028Y-78847213D01*
X109152786Y-78991971D01*
X109307749Y-79104556D01*
X109318390Y-79112287D01*
X109409840Y-79158883D01*
X109411080Y-79159515D01*
X109461876Y-79207490D01*
X109478671Y-79275311D01*
X109456134Y-79341446D01*
X109411080Y-79380485D01*
X109318386Y-79427715D01*
X109152786Y-79548028D01*
X109008028Y-79692786D01*
X108887715Y-79858386D01*
X108794783Y-80040774D01*
X108794782Y-80040777D01*
X108794780Y-80040781D01*
X108792731Y-80047088D01*
X108731522Y-80235465D01*
X108699500Y-80437648D01*
X108699500Y-80642351D01*
X108731522Y-80844534D01*
X108794781Y-81039223D01*
X108887715Y-81221613D01*
X109008028Y-81387213D01*
X109152786Y-81531971D01*
X109307749Y-81644556D01*
X109318390Y-81652287D01*
X109409840Y-81698883D01*
X109411080Y-81699515D01*
X109461876Y-81747490D01*
X109478671Y-81815311D01*
X109456134Y-81881446D01*
X109411080Y-81920485D01*
X109318386Y-81967715D01*
X109152786Y-82088028D01*
X109008028Y-82232786D01*
X108887715Y-82398386D01*
X108794781Y-82580776D01*
X108731522Y-82775465D01*
X108699500Y-82977648D01*
X108699500Y-83182351D01*
X108731522Y-83384534D01*
X108794781Y-83579223D01*
X108838688Y-83665394D01*
X108884036Y-83754394D01*
X108887715Y-83761613D01*
X109008028Y-83927213D01*
X109152786Y-84071971D01*
X109266234Y-84154394D01*
X109318390Y-84192287D01*
X109409840Y-84238883D01*
X109411080Y-84239515D01*
X109461876Y-84287490D01*
X109478671Y-84355311D01*
X109456134Y-84421446D01*
X109411080Y-84460485D01*
X109318386Y-84507715D01*
X109152786Y-84628028D01*
X109008028Y-84772786D01*
X108887715Y-84938386D01*
X108794781Y-85120776D01*
X108731522Y-85315465D01*
X108699500Y-85517648D01*
X108699500Y-85722351D01*
X108731522Y-85924534D01*
X108794781Y-86119223D01*
X108887715Y-86301613D01*
X109008028Y-86467213D01*
X109152786Y-86611971D01*
X109307749Y-86724556D01*
X109318390Y-86732287D01*
X109409840Y-86778883D01*
X109411080Y-86779515D01*
X109461876Y-86827490D01*
X109478671Y-86895311D01*
X109456134Y-86961446D01*
X109411080Y-87000485D01*
X109318386Y-87047715D01*
X109152786Y-87168028D01*
X109008028Y-87312786D01*
X108887715Y-87478386D01*
X108794781Y-87660776D01*
X108731522Y-87855465D01*
X108699500Y-88057648D01*
X108699500Y-88262351D01*
X108731522Y-88464534D01*
X108794781Y-88659223D01*
X108856415Y-88780185D01*
X108877414Y-88821398D01*
X108887715Y-88841613D01*
X109008028Y-89007213D01*
X109152786Y-89151971D01*
X109307749Y-89264556D01*
X109318390Y-89272287D01*
X109399899Y-89313818D01*
X109411080Y-89319515D01*
X109461876Y-89367490D01*
X109478671Y-89435311D01*
X109456134Y-89501446D01*
X109411080Y-89540485D01*
X109318386Y-89587715D01*
X109152786Y-89708028D01*
X109008028Y-89852786D01*
X108887715Y-90018386D01*
X108794781Y-90200776D01*
X108731522Y-90395465D01*
X108699500Y-90597648D01*
X108699500Y-90802351D01*
X108731522Y-91004534D01*
X108794781Y-91199223D01*
X108887715Y-91381613D01*
X109008028Y-91547213D01*
X109152786Y-91691971D01*
X109307749Y-91804556D01*
X109318390Y-91812287D01*
X109409840Y-91858883D01*
X109411080Y-91859515D01*
X109461876Y-91907490D01*
X109478671Y-91975311D01*
X109456134Y-92041446D01*
X109411080Y-92080485D01*
X109318386Y-92127715D01*
X109152786Y-92248028D01*
X109008028Y-92392786D01*
X108887715Y-92558386D01*
X108794781Y-92740776D01*
X108731522Y-92935465D01*
X108699500Y-93137648D01*
X108699500Y-93342351D01*
X108731522Y-93544534D01*
X108794781Y-93739223D01*
X108846385Y-93840500D01*
X108887159Y-93920523D01*
X108887715Y-93921613D01*
X109008028Y-94087213D01*
X109152786Y-94231971D01*
X109272084Y-94318644D01*
X109318390Y-94352287D01*
X109409840Y-94398883D01*
X109411080Y-94399515D01*
X109461876Y-94447490D01*
X109478671Y-94515311D01*
X109456134Y-94581446D01*
X109411080Y-94620485D01*
X109318386Y-94667715D01*
X109152786Y-94788028D01*
X109008028Y-94932786D01*
X108887715Y-95098386D01*
X108794781Y-95280776D01*
X108731522Y-95475465D01*
X108699500Y-95677648D01*
X108699500Y-95882351D01*
X108731522Y-96084534D01*
X108794781Y-96279223D01*
X108846385Y-96380500D01*
X108878801Y-96444120D01*
X108887715Y-96461613D01*
X109008028Y-96627213D01*
X109152786Y-96771971D01*
X109307749Y-96884556D01*
X109318390Y-96892287D01*
X109390424Y-96928990D01*
X109411629Y-96939795D01*
X109462425Y-96987770D01*
X109479220Y-97055591D01*
X109456682Y-97121726D01*
X109411629Y-97160765D01*
X109318650Y-97208140D01*
X109153105Y-97328417D01*
X109153104Y-97328417D01*
X109008417Y-97473104D01*
X109008417Y-97473105D01*
X108888140Y-97638650D01*
X108795244Y-97820970D01*
X108732009Y-98015586D01*
X108723391Y-98070000D01*
X109566988Y-98070000D01*
X109534075Y-98127007D01*
X109500000Y-98254174D01*
X109500000Y-98385826D01*
X109534075Y-98512993D01*
X109566988Y-98570000D01*
X108723391Y-98570000D01*
X108732009Y-98624413D01*
X108795244Y-98819029D01*
X108888140Y-99001349D01*
X109008417Y-99166894D01*
X109008417Y-99166895D01*
X109153104Y-99311582D01*
X109318652Y-99431861D01*
X109411628Y-99479234D01*
X109462425Y-99527208D01*
X109479220Y-99595029D01*
X109456683Y-99661164D01*
X109411630Y-99700203D01*
X109318388Y-99747713D01*
X109152786Y-99868028D01*
X109008028Y-100012786D01*
X108887715Y-100178386D01*
X108794781Y-100360776D01*
X108731522Y-100555465D01*
X108704135Y-100728384D01*
X108699500Y-100757648D01*
X108699500Y-100962352D01*
X108703703Y-100988888D01*
X108731522Y-101164534D01*
X108794781Y-101359223D01*
X108887715Y-101541613D01*
X109008028Y-101707213D01*
X109152786Y-101851971D01*
X109307749Y-101964556D01*
X109318390Y-101972287D01*
X109409840Y-102018883D01*
X109411080Y-102019515D01*
X109461876Y-102067490D01*
X109478671Y-102135311D01*
X109456134Y-102201446D01*
X109411080Y-102240485D01*
X109318386Y-102287715D01*
X109152786Y-102408028D01*
X109008028Y-102552786D01*
X108887715Y-102718386D01*
X108794781Y-102900776D01*
X108731522Y-103095465D01*
X108699500Y-103297648D01*
X108699500Y-103502351D01*
X108731522Y-103704534D01*
X108794781Y-103899223D01*
X108887715Y-104081613D01*
X109008028Y-104247213D01*
X109152784Y-104391969D01*
X109189068Y-104418330D01*
X109231735Y-104473659D01*
X109237715Y-104543273D01*
X109205109Y-104605068D01*
X109144271Y-104639426D01*
X109129440Y-104641938D01*
X109092519Y-104645907D01*
X108957671Y-104696202D01*
X108957664Y-104696206D01*
X108842455Y-104782452D01*
X108842452Y-104782455D01*
X108756206Y-104897664D01*
X108756202Y-104897671D01*
X108705908Y-105032517D01*
X108699959Y-105087856D01*
X108699501Y-105092124D01*
X108699500Y-105092135D01*
X108699500Y-106787870D01*
X108699501Y-106787876D01*
X108705908Y-106847483D01*
X108756202Y-106982328D01*
X108756206Y-106982335D01*
X108842452Y-107097544D01*
X108842455Y-107097547D01*
X108957664Y-107183793D01*
X108957671Y-107183797D01*
X109092517Y-107234091D01*
X109092516Y-107234091D01*
X109099444Y-107234835D01*
X109152127Y-107240500D01*
X110847872Y-107240499D01*
X110907483Y-107234091D01*
X111042331Y-107183796D01*
X111157546Y-107097546D01*
X111243796Y-106982331D01*
X111294091Y-106847483D01*
X111300500Y-106787873D01*
X111300500Y-106397682D01*
X122200000Y-106397682D01*
X122200000Y-106602317D01*
X122232009Y-106804417D01*
X122295244Y-106999031D01*
X122388141Y-107181350D01*
X122388147Y-107181359D01*
X122420523Y-107225921D01*
X122420524Y-107225922D01*
X123100000Y-106546446D01*
X123100000Y-106552661D01*
X123127259Y-106654394D01*
X123179920Y-106745606D01*
X123254394Y-106820080D01*
X123345606Y-106872741D01*
X123447339Y-106900000D01*
X123453553Y-106900000D01*
X122774076Y-107579474D01*
X122818650Y-107611859D01*
X123000968Y-107704755D01*
X123195582Y-107767990D01*
X123397683Y-107800000D01*
X123602317Y-107800000D01*
X123804417Y-107767990D01*
X123999031Y-107704755D01*
X124181349Y-107611859D01*
X124225921Y-107579474D01*
X124225922Y-107579474D01*
X124159528Y-107513080D01*
X123546447Y-106900000D01*
X123552661Y-106900000D01*
X123654394Y-106872741D01*
X123745606Y-106820080D01*
X123820080Y-106745606D01*
X123872741Y-106654394D01*
X123900000Y-106552661D01*
X123900000Y-106546447D01*
X124579474Y-107225921D01*
X124611859Y-107181349D01*
X124704755Y-106999031D01*
X124767990Y-106804417D01*
X124800000Y-106602317D01*
X124800000Y-106397682D01*
X124767990Y-106195582D01*
X124758181Y-106165394D01*
X124747313Y-106131947D01*
X128750000Y-106131947D01*
X128750000Y-106368052D01*
X128786934Y-106601247D01*
X128859897Y-106825802D01*
X128967087Y-107036174D01*
X129027338Y-107119104D01*
X129027340Y-107119105D01*
X129726212Y-106420233D01*
X129737482Y-106462292D01*
X129809890Y-106587708D01*
X129912292Y-106690110D01*
X130037708Y-106762518D01*
X130079765Y-106773787D01*
X129380893Y-107472658D01*
X129463828Y-107532914D01*
X129674197Y-107640102D01*
X129898752Y-107713065D01*
X129898751Y-107713065D01*
X130131948Y-107750000D01*
X130368052Y-107750000D01*
X130601247Y-107713065D01*
X130825802Y-107640102D01*
X131036163Y-107532918D01*
X131036169Y-107532914D01*
X131119104Y-107472658D01*
X131119105Y-107472658D01*
X130420233Y-106773787D01*
X130462292Y-106762518D01*
X130587708Y-106690110D01*
X130690110Y-106587708D01*
X130762518Y-106462292D01*
X130773787Y-106420234D01*
X131472658Y-107119105D01*
X131472658Y-107119104D01*
X131532914Y-107036169D01*
X131532918Y-107036163D01*
X131640102Y-106825802D01*
X131713065Y-106601247D01*
X131750000Y-106368052D01*
X131750000Y-106131947D01*
X135250000Y-106131947D01*
X135250000Y-106368052D01*
X135286934Y-106601247D01*
X135359897Y-106825802D01*
X135467087Y-107036174D01*
X135527338Y-107119104D01*
X135527340Y-107119105D01*
X136226212Y-106420233D01*
X136237482Y-106462292D01*
X136309890Y-106587708D01*
X136412292Y-106690110D01*
X136537708Y-106762518D01*
X136579765Y-106773787D01*
X135880893Y-107472658D01*
X135963828Y-107532914D01*
X136174197Y-107640102D01*
X136398752Y-107713065D01*
X136398751Y-107713065D01*
X136631948Y-107750000D01*
X136868052Y-107750000D01*
X137101247Y-107713065D01*
X137325802Y-107640102D01*
X137536163Y-107532918D01*
X137536169Y-107532914D01*
X137619104Y-107472658D01*
X137619105Y-107472658D01*
X136920233Y-106773787D01*
X136962292Y-106762518D01*
X137087708Y-106690110D01*
X137190110Y-106587708D01*
X137262518Y-106462292D01*
X137273787Y-106420234D01*
X137972658Y-107119105D01*
X137972658Y-107119104D01*
X138032914Y-107036169D01*
X138032918Y-107036163D01*
X138140102Y-106825802D01*
X138213065Y-106601247D01*
X138250000Y-106368052D01*
X138250000Y-106131947D01*
X138213065Y-105898752D01*
X138140102Y-105674197D01*
X138032914Y-105463828D01*
X137972658Y-105380894D01*
X137972658Y-105380893D01*
X137273787Y-106079765D01*
X137262518Y-106037708D01*
X137190110Y-105912292D01*
X137087708Y-105809890D01*
X136962292Y-105737482D01*
X136920234Y-105726212D01*
X137619105Y-105027340D01*
X137619104Y-105027338D01*
X137536174Y-104967087D01*
X137325802Y-104859897D01*
X137101247Y-104786934D01*
X137101248Y-104786934D01*
X136868052Y-104750000D01*
X136631948Y-104750000D01*
X136398752Y-104786934D01*
X136174197Y-104859897D01*
X135963830Y-104967084D01*
X135880894Y-105027340D01*
X136579766Y-105726212D01*
X136537708Y-105737482D01*
X136412292Y-105809890D01*
X136309890Y-105912292D01*
X136237482Y-106037708D01*
X136226212Y-106079766D01*
X135527340Y-105380894D01*
X135467084Y-105463830D01*
X135359897Y-105674197D01*
X135286934Y-105898752D01*
X135250000Y-106131947D01*
X131750000Y-106131947D01*
X131713065Y-105898752D01*
X131640102Y-105674197D01*
X131532914Y-105463828D01*
X131472658Y-105380894D01*
X131472658Y-105380893D01*
X130773787Y-106079765D01*
X130762518Y-106037708D01*
X130690110Y-105912292D01*
X130587708Y-105809890D01*
X130462292Y-105737482D01*
X130420234Y-105726212D01*
X131119105Y-105027340D01*
X131119104Y-105027339D01*
X131036174Y-104967087D01*
X130825802Y-104859897D01*
X130601247Y-104786934D01*
X130601248Y-104786934D01*
X130368052Y-104750000D01*
X130131948Y-104750000D01*
X129898752Y-104786934D01*
X129674197Y-104859897D01*
X129463830Y-104967084D01*
X129380894Y-105027340D01*
X130079766Y-105726212D01*
X130037708Y-105737482D01*
X129912292Y-105809890D01*
X129809890Y-105912292D01*
X129737482Y-106037708D01*
X129726212Y-106079766D01*
X129027340Y-105380894D01*
X128967084Y-105463830D01*
X128859897Y-105674197D01*
X128786934Y-105898752D01*
X128750000Y-106131947D01*
X124747313Y-106131947D01*
X124704755Y-106000968D01*
X124611859Y-105818650D01*
X124579474Y-105774077D01*
X124579474Y-105774076D01*
X123900000Y-106453551D01*
X123900000Y-106447339D01*
X123872741Y-106345606D01*
X123820080Y-106254394D01*
X123745606Y-106179920D01*
X123654394Y-106127259D01*
X123552661Y-106100000D01*
X123546446Y-106100000D01*
X124225922Y-105420524D01*
X124225921Y-105420523D01*
X124181359Y-105388147D01*
X124181350Y-105388141D01*
X123999031Y-105295244D01*
X123804417Y-105232009D01*
X123602317Y-105200000D01*
X123397683Y-105200000D01*
X123195582Y-105232009D01*
X123000968Y-105295244D01*
X122818644Y-105388143D01*
X122774077Y-105420523D01*
X122774077Y-105420524D01*
X123453554Y-106100000D01*
X123447339Y-106100000D01*
X123345606Y-106127259D01*
X123254394Y-106179920D01*
X123179920Y-106254394D01*
X123127259Y-106345606D01*
X123100000Y-106447339D01*
X123100000Y-106453553D01*
X122420524Y-105774077D01*
X122420523Y-105774077D01*
X122388143Y-105818644D01*
X122295244Y-106000968D01*
X122232009Y-106195582D01*
X122200000Y-106397682D01*
X111300500Y-106397682D01*
X111300499Y-105092128D01*
X111294091Y-105032517D01*
X111292159Y-105027338D01*
X111243797Y-104897671D01*
X111243793Y-104897664D01*
X111157547Y-104782455D01*
X111157544Y-104782452D01*
X111042335Y-104696206D01*
X111042328Y-104696202D01*
X110907482Y-104645908D01*
X110907483Y-104645908D01*
X110870560Y-104641939D01*
X110806009Y-104615201D01*
X110766160Y-104557809D01*
X110763667Y-104487984D01*
X110799319Y-104427895D01*
X110810930Y-104418331D01*
X110847219Y-104391966D01*
X110991966Y-104247219D01*
X110991968Y-104247215D01*
X110991971Y-104247213D01*
X111108056Y-104087433D01*
X111112287Y-104081610D01*
X111205220Y-103899219D01*
X111268477Y-103704534D01*
X111300500Y-103502352D01*
X111300500Y-103297648D01*
X111293032Y-103250500D01*
X111268477Y-103095465D01*
X111205218Y-102900776D01*
X111154124Y-102800500D01*
X111112287Y-102718390D01*
X111061493Y-102648477D01*
X110991971Y-102552786D01*
X110847213Y-102408028D01*
X110681614Y-102287715D01*
X110675006Y-102284348D01*
X110588917Y-102240483D01*
X110538123Y-102192511D01*
X110521328Y-102124690D01*
X110543865Y-102058555D01*
X110588917Y-102019516D01*
X110681610Y-101972287D01*
X110809703Y-101879223D01*
X110847213Y-101851971D01*
X110847215Y-101851968D01*
X110847219Y-101851966D01*
X110991966Y-101707219D01*
X110991968Y-101707215D01*
X110991971Y-101707213D01*
X111046687Y-101631902D01*
X111112287Y-101541610D01*
X111205220Y-101359219D01*
X111268477Y-101164534D01*
X111300500Y-100962352D01*
X111300500Y-100757648D01*
X111295865Y-100728384D01*
X111268477Y-100555465D01*
X111213971Y-100387715D01*
X111205220Y-100360781D01*
X111205218Y-100360778D01*
X111205218Y-100360776D01*
X111148519Y-100249500D01*
X111112287Y-100178390D01*
X111068533Y-100118167D01*
X110991971Y-100012786D01*
X110847213Y-99868028D01*
X110681611Y-99747713D01*
X110588369Y-99700203D01*
X110537574Y-99652229D01*
X110520779Y-99584407D01*
X110543317Y-99518273D01*
X110588371Y-99479234D01*
X110681347Y-99431861D01*
X110846894Y-99311582D01*
X110846895Y-99311582D01*
X110991582Y-99166895D01*
X110991582Y-99166894D01*
X111111859Y-99001349D01*
X111204755Y-98819029D01*
X111267990Y-98624413D01*
X111276609Y-98570000D01*
X110433012Y-98570000D01*
X110465925Y-98512993D01*
X110500000Y-98385826D01*
X110500000Y-98254174D01*
X110465925Y-98127007D01*
X110433012Y-98070000D01*
X111276609Y-98070000D01*
X111267990Y-98015586D01*
X111204755Y-97820970D01*
X111111859Y-97638650D01*
X110991582Y-97473105D01*
X110991582Y-97473104D01*
X110846895Y-97328417D01*
X110681349Y-97208140D01*
X110588370Y-97160765D01*
X110537574Y-97112790D01*
X110520779Y-97044969D01*
X110543316Y-96978835D01*
X110588370Y-96939795D01*
X110588920Y-96939515D01*
X110681610Y-96892287D01*
X110702770Y-96876913D01*
X110847213Y-96771971D01*
X110847215Y-96771968D01*
X110847219Y-96771966D01*
X110991966Y-96627219D01*
X110991968Y-96627215D01*
X110991971Y-96627213D01*
X111112284Y-96461614D01*
X111112285Y-96461613D01*
X111112287Y-96461610D01*
X111119117Y-96448204D01*
X111167091Y-96397409D01*
X111229602Y-96380500D01*
X111599903Y-96380500D01*
X111666942Y-96400185D01*
X111687584Y-96416819D01*
X116205922Y-100935157D01*
X116239407Y-100996480D01*
X116236173Y-101061155D01*
X116231522Y-101075468D01*
X116199500Y-101277648D01*
X116199500Y-101482351D01*
X116231522Y-101684534D01*
X116294781Y-101879223D01*
X116346385Y-101980500D01*
X116386299Y-102058835D01*
X116387715Y-102061613D01*
X116508028Y-102227213D01*
X116652786Y-102371971D01*
X116807749Y-102484556D01*
X116818390Y-102492287D01*
X116934607Y-102551503D01*
X117000776Y-102585218D01*
X117000778Y-102585218D01*
X117000781Y-102585220D01*
X117084085Y-102612287D01*
X117195465Y-102648477D01*
X117296557Y-102664488D01*
X117397648Y-102680500D01*
X117397649Y-102680500D01*
X117602351Y-102680500D01*
X117602352Y-102680500D01*
X117804534Y-102648477D01*
X117999219Y-102585220D01*
X118181610Y-102492287D01*
X118297048Y-102408417D01*
X118347213Y-102371971D01*
X118347215Y-102371968D01*
X118347219Y-102371966D01*
X118491966Y-102227219D01*
X118491968Y-102227215D01*
X118491971Y-102227213D01*
X118596913Y-102082770D01*
X118612287Y-102061610D01*
X118619117Y-102048204D01*
X118667091Y-101997409D01*
X118729602Y-101980500D01*
X122209255Y-101980500D01*
X122276294Y-102000185D01*
X122319739Y-102048204D01*
X122364265Y-102135591D01*
X122387715Y-102181614D01*
X122508028Y-102347213D01*
X122652786Y-102491971D01*
X122781132Y-102585218D01*
X122818390Y-102612287D01*
X122889417Y-102648477D01*
X123000776Y-102705218D01*
X123000778Y-102705218D01*
X123000781Y-102705220D01*
X123069383Y-102727510D01*
X123195465Y-102768477D01*
X123296557Y-102784488D01*
X123397648Y-102800500D01*
X123397649Y-102800500D01*
X123602351Y-102800500D01*
X123602352Y-102800500D01*
X123804534Y-102768477D01*
X123999219Y-102705220D01*
X124181610Y-102612287D01*
X124286015Y-102536433D01*
X124347213Y-102491971D01*
X124347215Y-102491968D01*
X124347219Y-102491966D01*
X124452366Y-102386819D01*
X124513689Y-102353334D01*
X124540047Y-102350500D01*
X128795932Y-102350500D01*
X128862971Y-102370185D01*
X128906416Y-102418203D01*
X128966657Y-102536433D01*
X129105483Y-102727510D01*
X129272490Y-102894517D01*
X129463567Y-103033343D01*
X129562991Y-103084002D01*
X129674003Y-103140566D01*
X129674005Y-103140566D01*
X129674008Y-103140568D01*
X129703037Y-103150000D01*
X129898631Y-103213553D01*
X130131903Y-103250500D01*
X130131908Y-103250500D01*
X130368097Y-103250500D01*
X130601368Y-103213553D01*
X130621514Y-103207007D01*
X130825992Y-103140568D01*
X131036433Y-103033343D01*
X131227510Y-102894517D01*
X131394517Y-102727510D01*
X131533343Y-102536433D01*
X131593583Y-102418204D01*
X131641558Y-102367409D01*
X131704068Y-102350500D01*
X135295932Y-102350500D01*
X135362971Y-102370185D01*
X135406416Y-102418203D01*
X135466657Y-102536433D01*
X135605483Y-102727510D01*
X135772490Y-102894517D01*
X135963567Y-103033343D01*
X136062991Y-103084002D01*
X136174003Y-103140566D01*
X136174005Y-103140566D01*
X136174008Y-103140568D01*
X136203037Y-103150000D01*
X136398631Y-103213553D01*
X136631903Y-103250500D01*
X136631908Y-103250500D01*
X136868097Y-103250500D01*
X137101368Y-103213553D01*
X137121514Y-103207007D01*
X137325992Y-103140568D01*
X137536433Y-103033343D01*
X137727510Y-102894517D01*
X137894517Y-102727510D01*
X138033343Y-102536433D01*
X138140568Y-102325992D01*
X138213553Y-102101368D01*
X138219278Y-102065220D01*
X138250500Y-101868097D01*
X138250500Y-101631902D01*
X138213553Y-101398631D01*
X138140566Y-101174003D01*
X138050113Y-100996480D01*
X138033343Y-100963567D01*
X137894517Y-100772490D01*
X137727510Y-100605483D01*
X137536433Y-100466657D01*
X137325996Y-100359433D01*
X137101368Y-100286446D01*
X136868097Y-100249500D01*
X136868092Y-100249500D01*
X136631908Y-100249500D01*
X136631903Y-100249500D01*
X136398631Y-100286446D01*
X136174003Y-100359433D01*
X135963566Y-100466657D01*
X135854550Y-100545862D01*
X135772490Y-100605483D01*
X135772488Y-100605485D01*
X135772487Y-100605485D01*
X135605485Y-100772487D01*
X135605485Y-100772488D01*
X135605483Y-100772490D01*
X135600390Y-100779500D01*
X135466657Y-100963566D01*
X135453755Y-100988888D01*
X135408855Y-101077011D01*
X135406417Y-101081795D01*
X135358442Y-101132591D01*
X135295932Y-101149500D01*
X131704068Y-101149500D01*
X131637029Y-101129815D01*
X131593583Y-101081795D01*
X131533343Y-100963567D01*
X131394517Y-100772490D01*
X131227510Y-100605483D01*
X131036433Y-100466657D01*
X130825996Y-100359433D01*
X130601368Y-100286446D01*
X130368097Y-100249500D01*
X130368092Y-100249500D01*
X130131908Y-100249500D01*
X130131903Y-100249500D01*
X129898631Y-100286446D01*
X129674003Y-100359433D01*
X129463566Y-100466657D01*
X129354550Y-100545862D01*
X129272490Y-100605483D01*
X129272488Y-100605485D01*
X129272487Y-100605485D01*
X129105485Y-100772487D01*
X129105485Y-100772488D01*
X129105483Y-100772490D01*
X129100390Y-100779500D01*
X128966657Y-100963566D01*
X128953755Y-100988888D01*
X128908855Y-101077011D01*
X128906417Y-101081795D01*
X128858442Y-101132591D01*
X128795932Y-101149500D01*
X124843633Y-101149500D01*
X124776594Y-101129815D01*
X124730839Y-101077011D01*
X124725702Y-101063819D01*
X124724836Y-101061155D01*
X124705220Y-101000781D01*
X124705218Y-101000778D01*
X124705218Y-101000776D01*
X124671503Y-100934607D01*
X124612287Y-100818390D01*
X124578937Y-100772487D01*
X124491971Y-100652786D01*
X124347213Y-100508028D01*
X124181613Y-100387715D01*
X124181612Y-100387714D01*
X124181610Y-100387713D01*
X124115737Y-100354149D01*
X123999223Y-100294781D01*
X123804534Y-100231522D01*
X123629995Y-100203878D01*
X123602352Y-100199500D01*
X123397648Y-100199500D01*
X123373329Y-100203351D01*
X123195465Y-100231522D01*
X123000776Y-100294781D01*
X122818386Y-100387715D01*
X122652786Y-100508028D01*
X122508030Y-100652784D01*
X122453106Y-100728384D01*
X122397777Y-100771051D01*
X122352787Y-100779500D01*
X118729602Y-100779500D01*
X118662563Y-100759815D01*
X118619117Y-100711795D01*
X118612284Y-100698385D01*
X118491971Y-100532786D01*
X118347213Y-100388028D01*
X118181613Y-100267715D01*
X118181612Y-100267714D01*
X118181610Y-100267713D01*
X118110583Y-100231523D01*
X117999223Y-100174781D01*
X117804534Y-100111522D01*
X117629995Y-100083878D01*
X117602352Y-100079500D01*
X117397648Y-100079500D01*
X117359599Y-100085526D01*
X117195468Y-100111522D01*
X117186717Y-100114365D01*
X117181154Y-100116173D01*
X117111313Y-100118167D01*
X117055157Y-100085922D01*
X114176883Y-97207648D01*
X116199500Y-97207648D01*
X116199500Y-97412351D01*
X116231522Y-97614534D01*
X116294781Y-97809223D01*
X116387715Y-97991613D01*
X116508028Y-98157213D01*
X116652786Y-98301971D01*
X116807749Y-98414556D01*
X116818390Y-98422287D01*
X116934607Y-98481503D01*
X117000776Y-98515218D01*
X117000778Y-98515218D01*
X117000781Y-98515220D01*
X117105137Y-98549127D01*
X117195465Y-98578477D01*
X117296557Y-98594488D01*
X117397648Y-98610500D01*
X117397649Y-98610500D01*
X117602351Y-98610500D01*
X117602352Y-98610500D01*
X117804534Y-98578477D01*
X117999219Y-98515220D01*
X118181610Y-98422287D01*
X118274590Y-98354732D01*
X118347213Y-98301971D01*
X118347215Y-98301968D01*
X118347219Y-98301966D01*
X118491966Y-98157219D01*
X118491968Y-98157215D01*
X118491971Y-98157213D01*
X118560631Y-98062709D01*
X118612287Y-97991610D01*
X118705220Y-97809219D01*
X118768477Y-97614534D01*
X118800500Y-97412352D01*
X118800500Y-97207648D01*
X118785432Y-97112511D01*
X118768477Y-97005465D01*
X118705218Y-96810776D01*
X118671503Y-96744607D01*
X118612287Y-96628390D01*
X118586363Y-96592708D01*
X118491971Y-96462786D01*
X118347213Y-96318028D01*
X118181614Y-96197715D01*
X118073641Y-96142700D01*
X117999223Y-96104781D01*
X117804534Y-96041522D01*
X117629995Y-96013878D01*
X117602352Y-96009500D01*
X117397648Y-96009500D01*
X117373329Y-96013351D01*
X117195465Y-96041522D01*
X117000776Y-96104781D01*
X116818386Y-96197715D01*
X116652786Y-96318028D01*
X116508028Y-96462786D01*
X116387715Y-96628386D01*
X116294781Y-96810776D01*
X116231522Y-97005465D01*
X116199500Y-97207648D01*
X114176883Y-97207648D01*
X112387590Y-95418355D01*
X112387588Y-95418352D01*
X112268717Y-95299481D01*
X112268716Y-95299480D01*
X112181904Y-95249360D01*
X112181904Y-95249359D01*
X112181900Y-95249358D01*
X112131785Y-95220423D01*
X111979057Y-95179499D01*
X111820943Y-95179499D01*
X111813347Y-95179499D01*
X111813331Y-95179500D01*
X111229602Y-95179500D01*
X111223170Y-95177611D01*
X111216575Y-95178814D01*
X111190065Y-95167890D01*
X111162563Y-95159815D01*
X111156652Y-95154122D01*
X111151974Y-95152195D01*
X111142298Y-95140298D01*
X111127876Y-95126408D01*
X111122995Y-95119406D01*
X111112287Y-95098390D01*
X110991966Y-94932781D01*
X110956867Y-94897682D01*
X122200000Y-94897682D01*
X122200000Y-95102317D01*
X122232009Y-95304417D01*
X122295244Y-95499031D01*
X122388141Y-95681350D01*
X122388147Y-95681359D01*
X122420523Y-95725921D01*
X122420524Y-95725922D01*
X123100000Y-95046446D01*
X123100000Y-95052661D01*
X123127259Y-95154394D01*
X123179920Y-95245606D01*
X123254394Y-95320080D01*
X123345606Y-95372741D01*
X123447339Y-95400000D01*
X123453553Y-95400000D01*
X122774076Y-96079474D01*
X122818650Y-96111859D01*
X123000968Y-96204755D01*
X123195582Y-96267990D01*
X123397683Y-96300000D01*
X123602317Y-96300000D01*
X123804417Y-96267990D01*
X123999031Y-96204755D01*
X124181349Y-96111859D01*
X124225921Y-96079474D01*
X123546447Y-95400000D01*
X123552661Y-95400000D01*
X123654394Y-95372741D01*
X123745606Y-95320080D01*
X123820080Y-95245606D01*
X123872741Y-95154394D01*
X123900000Y-95052661D01*
X123900000Y-95046447D01*
X124579474Y-95725921D01*
X124611859Y-95681349D01*
X124704755Y-95499031D01*
X124741131Y-95387080D01*
X124767990Y-95304417D01*
X124800000Y-95102317D01*
X124800000Y-94897682D01*
X124767990Y-94695582D01*
X124704755Y-94500968D01*
X124611859Y-94318650D01*
X124579474Y-94274077D01*
X124579474Y-94274076D01*
X123900000Y-94953551D01*
X123900000Y-94947339D01*
X123872741Y-94845606D01*
X123820080Y-94754394D01*
X123745606Y-94679920D01*
X123654394Y-94627259D01*
X123552661Y-94600000D01*
X123546446Y-94600000D01*
X124014500Y-94131947D01*
X128750000Y-94131947D01*
X128750000Y-94368052D01*
X128786934Y-94601247D01*
X128859897Y-94825802D01*
X128967087Y-95036174D01*
X129027338Y-95119104D01*
X129027340Y-95119105D01*
X129726212Y-94420233D01*
X129737482Y-94462292D01*
X129809890Y-94587708D01*
X129912292Y-94690110D01*
X130037708Y-94762518D01*
X130079765Y-94773787D01*
X129380893Y-95472658D01*
X129463828Y-95532914D01*
X129674197Y-95640102D01*
X129898752Y-95713065D01*
X129898751Y-95713065D01*
X130131948Y-95750000D01*
X130368052Y-95750000D01*
X130601247Y-95713065D01*
X130825802Y-95640102D01*
X131036163Y-95532918D01*
X131036169Y-95532914D01*
X131119104Y-95472658D01*
X131119105Y-95472658D01*
X130420233Y-94773787D01*
X130462292Y-94762518D01*
X130587708Y-94690110D01*
X130690110Y-94587708D01*
X130762518Y-94462292D01*
X130773787Y-94420234D01*
X131472658Y-95119105D01*
X131472658Y-95119104D01*
X131532914Y-95036169D01*
X131532918Y-95036163D01*
X131640102Y-94825802D01*
X131713065Y-94601247D01*
X131750000Y-94368052D01*
X131750000Y-94131947D01*
X135250000Y-94131947D01*
X135250000Y-94368052D01*
X135286934Y-94601247D01*
X135359897Y-94825802D01*
X135467087Y-95036174D01*
X135527338Y-95119104D01*
X135527340Y-95119105D01*
X136226212Y-94420233D01*
X136237482Y-94462292D01*
X136309890Y-94587708D01*
X136412292Y-94690110D01*
X136537708Y-94762518D01*
X136579765Y-94773787D01*
X135880893Y-95472658D01*
X135963828Y-95532914D01*
X136174197Y-95640102D01*
X136398752Y-95713065D01*
X136398751Y-95713065D01*
X136631948Y-95750000D01*
X136868052Y-95750000D01*
X137101247Y-95713065D01*
X137325802Y-95640102D01*
X137536163Y-95532918D01*
X137536169Y-95532914D01*
X137619104Y-95472658D01*
X137619105Y-95472658D01*
X136920233Y-94773787D01*
X136962292Y-94762518D01*
X137087708Y-94690110D01*
X137190110Y-94587708D01*
X137262518Y-94462292D01*
X137273787Y-94420234D01*
X137972658Y-95119105D01*
X137972658Y-95119104D01*
X138032914Y-95036169D01*
X138032918Y-95036163D01*
X138140102Y-94825802D01*
X138213065Y-94601247D01*
X138250000Y-94368052D01*
X138250000Y-94131947D01*
X138213065Y-93898752D01*
X138140102Y-93674197D01*
X138032914Y-93463828D01*
X137972658Y-93380894D01*
X137972658Y-93380893D01*
X137273787Y-94079765D01*
X137262518Y-94037708D01*
X137190110Y-93912292D01*
X137087708Y-93809890D01*
X136962292Y-93737482D01*
X136920234Y-93726212D01*
X137619105Y-93027340D01*
X137619104Y-93027338D01*
X137536174Y-92967087D01*
X137325802Y-92859897D01*
X137101247Y-92786934D01*
X137101248Y-92786934D01*
X136868052Y-92750000D01*
X136631948Y-92750000D01*
X136398752Y-92786934D01*
X136174197Y-92859897D01*
X135963830Y-92967084D01*
X135880894Y-93027340D01*
X136579766Y-93726212D01*
X136537708Y-93737482D01*
X136412292Y-93809890D01*
X136309890Y-93912292D01*
X136237482Y-94037708D01*
X136226212Y-94079766D01*
X135527340Y-93380894D01*
X135467084Y-93463830D01*
X135359897Y-93674197D01*
X135286934Y-93898752D01*
X135250000Y-94131947D01*
X131750000Y-94131947D01*
X131713065Y-93898752D01*
X131640102Y-93674197D01*
X131532914Y-93463828D01*
X131472658Y-93380894D01*
X131472658Y-93380893D01*
X130773787Y-94079765D01*
X130762518Y-94037708D01*
X130690110Y-93912292D01*
X130587708Y-93809890D01*
X130462292Y-93737482D01*
X130420234Y-93726212D01*
X131119105Y-93027340D01*
X131119104Y-93027339D01*
X131036174Y-92967087D01*
X130825802Y-92859897D01*
X130601247Y-92786934D01*
X130601248Y-92786934D01*
X130368052Y-92750000D01*
X130131948Y-92750000D01*
X129898752Y-92786934D01*
X129674197Y-92859897D01*
X129463830Y-92967084D01*
X129380894Y-93027340D01*
X130079766Y-93726212D01*
X130037708Y-93737482D01*
X129912292Y-93809890D01*
X129809890Y-93912292D01*
X129737482Y-94037708D01*
X129726212Y-94079766D01*
X129027340Y-93380894D01*
X128967084Y-93463830D01*
X128859897Y-93674197D01*
X128786934Y-93898752D01*
X128750000Y-94131947D01*
X124014500Y-94131947D01*
X124107053Y-94039394D01*
X124225922Y-93920524D01*
X124225921Y-93920523D01*
X124181359Y-93888147D01*
X124181350Y-93888141D01*
X123999031Y-93795244D01*
X123804417Y-93732009D01*
X123602317Y-93700000D01*
X123397683Y-93700000D01*
X123195582Y-93732009D01*
X123000968Y-93795244D01*
X122818644Y-93888143D01*
X122774077Y-93920523D01*
X122774077Y-93920524D01*
X123453554Y-94600000D01*
X123447339Y-94600000D01*
X123345606Y-94627259D01*
X123254394Y-94679920D01*
X123179920Y-94754394D01*
X123127259Y-94845606D01*
X123100000Y-94947339D01*
X123100000Y-94953553D01*
X122420524Y-94274077D01*
X122420523Y-94274077D01*
X122388143Y-94318644D01*
X122295244Y-94500968D01*
X122232009Y-94695582D01*
X122200000Y-94897682D01*
X110956867Y-94897682D01*
X110847219Y-94788034D01*
X110847213Y-94788028D01*
X110681614Y-94667715D01*
X110639871Y-94646446D01*
X110588917Y-94620483D01*
X110538123Y-94572511D01*
X110521328Y-94504690D01*
X110543865Y-94438555D01*
X110588917Y-94399516D01*
X110681610Y-94352287D01*
X110789258Y-94274077D01*
X110847213Y-94231971D01*
X110847215Y-94231968D01*
X110847219Y-94231966D01*
X110991966Y-94087219D01*
X110991968Y-94087215D01*
X110991971Y-94087213D01*
X111112284Y-93921614D01*
X111112285Y-93921613D01*
X111112287Y-93921610D01*
X111119120Y-93908198D01*
X111167097Y-93857406D01*
X111229602Y-93840500D01*
X113863331Y-93840500D01*
X113863347Y-93840501D01*
X113870943Y-93840501D01*
X114029054Y-93840501D01*
X114029057Y-93840501D01*
X114181785Y-93799577D01*
X114231904Y-93770639D01*
X114318716Y-93720520D01*
X114430520Y-93608716D01*
X114430520Y-93608714D01*
X114440728Y-93598507D01*
X114440730Y-93598504D01*
X117055158Y-90984075D01*
X117116479Y-90950592D01*
X117181151Y-90953825D01*
X117195466Y-90958477D01*
X117397648Y-90990500D01*
X117397649Y-90990500D01*
X117602351Y-90990500D01*
X117602352Y-90990500D01*
X117804534Y-90958477D01*
X117999219Y-90895220D01*
X118181610Y-90802287D01*
X118284538Y-90727506D01*
X118347213Y-90681971D01*
X118347215Y-90681968D01*
X118347219Y-90681966D01*
X118491966Y-90537219D01*
X118491968Y-90537215D01*
X118491971Y-90537213D01*
X118612284Y-90371614D01*
X118612283Y-90371614D01*
X118612287Y-90371610D01*
X118619117Y-90358204D01*
X118667091Y-90307409D01*
X118729602Y-90290500D01*
X122136872Y-90290500D01*
X122203911Y-90310185D01*
X122249666Y-90362989D01*
X122254802Y-90376179D01*
X122294780Y-90499219D01*
X122356415Y-90620185D01*
X122387715Y-90681613D01*
X122508028Y-90847213D01*
X122652786Y-90991971D01*
X122807749Y-91104556D01*
X122818390Y-91112287D01*
X122873895Y-91140568D01*
X123000776Y-91205218D01*
X123000778Y-91205218D01*
X123000781Y-91205220D01*
X123105137Y-91239127D01*
X123195465Y-91268477D01*
X123296557Y-91284488D01*
X123397648Y-91300500D01*
X123397649Y-91300500D01*
X123602351Y-91300500D01*
X123602352Y-91300500D01*
X123804534Y-91268477D01*
X123999219Y-91205220D01*
X124181610Y-91112287D01*
X124290268Y-91033343D01*
X124347213Y-90991971D01*
X124347215Y-90991968D01*
X124347219Y-90991966D01*
X124491966Y-90847219D01*
X124491968Y-90847215D01*
X124491971Y-90847213D01*
X124612284Y-90681614D01*
X124612285Y-90681613D01*
X124612287Y-90681610D01*
X124619117Y-90668204D01*
X124667091Y-90617409D01*
X124729602Y-90600500D01*
X128950024Y-90600500D01*
X129017063Y-90620185D01*
X129050342Y-90651615D01*
X129105483Y-90727510D01*
X129272490Y-90894517D01*
X129463567Y-91033343D01*
X129562991Y-91084002D01*
X129674003Y-91140566D01*
X129674005Y-91140566D01*
X129674008Y-91140568D01*
X129794412Y-91179689D01*
X129898631Y-91213553D01*
X130131903Y-91250500D01*
X130131908Y-91250500D01*
X130368097Y-91250500D01*
X130601368Y-91213553D01*
X130645483Y-91199219D01*
X130825992Y-91140568D01*
X131036433Y-91033343D01*
X131227510Y-90894517D01*
X131394517Y-90727510D01*
X131533343Y-90536433D01*
X131593583Y-90418204D01*
X131641558Y-90367409D01*
X131704068Y-90350500D01*
X135295932Y-90350500D01*
X135362971Y-90370185D01*
X135406416Y-90418203D01*
X135466657Y-90536433D01*
X135605483Y-90727510D01*
X135772490Y-90894517D01*
X135963567Y-91033343D01*
X136062991Y-91084002D01*
X136174003Y-91140566D01*
X136174005Y-91140566D01*
X136174008Y-91140568D01*
X136294412Y-91179689D01*
X136398631Y-91213553D01*
X136631903Y-91250500D01*
X136631908Y-91250500D01*
X136868097Y-91250500D01*
X137101368Y-91213553D01*
X137145483Y-91199219D01*
X137325992Y-91140568D01*
X137536433Y-91033343D01*
X137727510Y-90894517D01*
X137894517Y-90727510D01*
X138033343Y-90536433D01*
X138140568Y-90325992D01*
X138213553Y-90101368D01*
X138224572Y-90031795D01*
X138250500Y-89868097D01*
X138250500Y-89631902D01*
X138213553Y-89398631D01*
X138140566Y-89174003D01*
X138079004Y-89053181D01*
X138033343Y-88963567D01*
X137894517Y-88772490D01*
X137727510Y-88605483D01*
X137536433Y-88466657D01*
X137447851Y-88421522D01*
X137325996Y-88359433D01*
X137101368Y-88286446D01*
X136868097Y-88249500D01*
X136868092Y-88249500D01*
X136631908Y-88249500D01*
X136631903Y-88249500D01*
X136398631Y-88286446D01*
X136174003Y-88359433D01*
X135963566Y-88466657D01*
X135854550Y-88545862D01*
X135772490Y-88605483D01*
X135772488Y-88605485D01*
X135772487Y-88605485D01*
X135605485Y-88772487D01*
X135605485Y-88772488D01*
X135605483Y-88772490D01*
X135554410Y-88842786D01*
X135466657Y-88963566D01*
X135406417Y-89081795D01*
X135358442Y-89132591D01*
X135295932Y-89149500D01*
X131704068Y-89149500D01*
X131637029Y-89129815D01*
X131593583Y-89081795D01*
X131587479Y-89069815D01*
X131533343Y-88963567D01*
X131394517Y-88772490D01*
X131227510Y-88605483D01*
X131036433Y-88466657D01*
X130947851Y-88421522D01*
X130825996Y-88359433D01*
X130601368Y-88286446D01*
X130368097Y-88249500D01*
X130368092Y-88249500D01*
X130131908Y-88249500D01*
X130131903Y-88249500D01*
X129898631Y-88286446D01*
X129674003Y-88359433D01*
X129463566Y-88466657D01*
X129354550Y-88545862D01*
X129272490Y-88605483D01*
X129272488Y-88605485D01*
X129272487Y-88605485D01*
X129105485Y-88772487D01*
X129105485Y-88772488D01*
X129105483Y-88772490D01*
X129054410Y-88842786D01*
X128966657Y-88963566D01*
X128859433Y-89174005D01*
X128814005Y-89313818D01*
X128774567Y-89371494D01*
X128710209Y-89398692D01*
X128696074Y-89399500D01*
X124729602Y-89399500D01*
X124662563Y-89379815D01*
X124619117Y-89331795D01*
X124612284Y-89318385D01*
X124491971Y-89152786D01*
X124347213Y-89008028D01*
X124181613Y-88887715D01*
X124181612Y-88887714D01*
X124181610Y-88887713D01*
X124093436Y-88842786D01*
X123999223Y-88794781D01*
X123804534Y-88731522D01*
X123629995Y-88703878D01*
X123602352Y-88699500D01*
X123397648Y-88699500D01*
X123373329Y-88703351D01*
X123195465Y-88731522D01*
X123000776Y-88794781D01*
X122818386Y-88887715D01*
X122652786Y-89008028D01*
X122652782Y-89008032D01*
X122607634Y-89053181D01*
X122546311Y-89086666D01*
X122519953Y-89089500D01*
X118729602Y-89089500D01*
X118662563Y-89069815D01*
X118619117Y-89021795D01*
X118612284Y-89008385D01*
X118491971Y-88842786D01*
X118347213Y-88698028D01*
X118181613Y-88577715D01*
X118181612Y-88577714D01*
X118181610Y-88577713D01*
X118124653Y-88548691D01*
X117999223Y-88484781D01*
X117804534Y-88421522D01*
X117629995Y-88393878D01*
X117602352Y-88389500D01*
X117397648Y-88389500D01*
X117373329Y-88393351D01*
X117195465Y-88421522D01*
X117000776Y-88484781D01*
X116818386Y-88577715D01*
X116652786Y-88698028D01*
X116508028Y-88842786D01*
X116387715Y-89008386D01*
X116294781Y-89190776D01*
X116231522Y-89385465D01*
X116199500Y-89587648D01*
X116199500Y-89792351D01*
X116231522Y-89994534D01*
X116236173Y-90008848D01*
X116238165Y-90078690D01*
X116205921Y-90134842D01*
X113737584Y-92603181D01*
X113676261Y-92636666D01*
X113649903Y-92639500D01*
X111229602Y-92639500D01*
X111162563Y-92619815D01*
X111119117Y-92571795D01*
X111112284Y-92558385D01*
X110991971Y-92392786D01*
X110847213Y-92248028D01*
X110681614Y-92127715D01*
X110675006Y-92124348D01*
X110588917Y-92080483D01*
X110538123Y-92032511D01*
X110521328Y-91964690D01*
X110543865Y-91898555D01*
X110588917Y-91859516D01*
X110681610Y-91812287D01*
X110702770Y-91796913D01*
X110847213Y-91691971D01*
X110847215Y-91691968D01*
X110847219Y-91691966D01*
X110991966Y-91547219D01*
X110991968Y-91547215D01*
X110991971Y-91547213D01*
X111048259Y-91469738D01*
X111112287Y-91381610D01*
X111205220Y-91199219D01*
X111268477Y-91004534D01*
X111300500Y-90802352D01*
X111300500Y-90597648D01*
X111268477Y-90395466D01*
X111263825Y-90381151D01*
X111261832Y-90311312D01*
X111294075Y-90255158D01*
X115151586Y-86397648D01*
X116699500Y-86397648D01*
X116699500Y-86602351D01*
X116731522Y-86804534D01*
X116794781Y-86999223D01*
X116887715Y-87181613D01*
X117008028Y-87347213D01*
X117152786Y-87491971D01*
X117300790Y-87599500D01*
X117318390Y-87612287D01*
X117413555Y-87660776D01*
X117500776Y-87705218D01*
X117500778Y-87705218D01*
X117500781Y-87705220D01*
X117605137Y-87739127D01*
X117695465Y-87768477D01*
X117796557Y-87784488D01*
X117897648Y-87800500D01*
X117897649Y-87800500D01*
X118102351Y-87800500D01*
X118102352Y-87800500D01*
X118304534Y-87768477D01*
X118499219Y-87705220D01*
X118681610Y-87612287D01*
X118777539Y-87542591D01*
X118847213Y-87491971D01*
X118847215Y-87491968D01*
X118847219Y-87491966D01*
X118991966Y-87347219D01*
X118991968Y-87347215D01*
X118991971Y-87347213D01*
X119044732Y-87274590D01*
X119112287Y-87181610D01*
X119205220Y-86999219D01*
X119268477Y-86804534D01*
X119300500Y-86602352D01*
X119300500Y-86397648D01*
X119268477Y-86195466D01*
X119205220Y-86000781D01*
X119205218Y-86000778D01*
X119205218Y-86000776D01*
X119166370Y-85924534D01*
X119112287Y-85818390D01*
X119104556Y-85807749D01*
X118991971Y-85652786D01*
X118847213Y-85508028D01*
X118681613Y-85387715D01*
X118681612Y-85387714D01*
X118681610Y-85387713D01*
X118624653Y-85358691D01*
X118499223Y-85294781D01*
X118304534Y-85231522D01*
X118129995Y-85203878D01*
X118102352Y-85199500D01*
X117897648Y-85199500D01*
X117873329Y-85203351D01*
X117695465Y-85231522D01*
X117500776Y-85294781D01*
X117318386Y-85387715D01*
X117152786Y-85508028D01*
X117008028Y-85652786D01*
X116887715Y-85818386D01*
X116794781Y-86000776D01*
X116731522Y-86195465D01*
X116699500Y-86397648D01*
X115151586Y-86397648D01*
X117651552Y-83897682D01*
X122200000Y-83897682D01*
X122200000Y-84102317D01*
X122232009Y-84304417D01*
X122295244Y-84499031D01*
X122388141Y-84681350D01*
X122388147Y-84681359D01*
X122420523Y-84725921D01*
X122420524Y-84725922D01*
X123100000Y-84046446D01*
X123100000Y-84052661D01*
X123127259Y-84154394D01*
X123179920Y-84245606D01*
X123254394Y-84320080D01*
X123345606Y-84372741D01*
X123447339Y-84400000D01*
X123453553Y-84400000D01*
X122774076Y-85079474D01*
X122818650Y-85111859D01*
X123000968Y-85204755D01*
X123195582Y-85267990D01*
X123397683Y-85300000D01*
X123602317Y-85300000D01*
X123804417Y-85267990D01*
X123999031Y-85204755D01*
X124181349Y-85111859D01*
X124225921Y-85079474D01*
X124225922Y-85079474D01*
X124159528Y-85013080D01*
X123546447Y-84400000D01*
X123552661Y-84400000D01*
X123654394Y-84372741D01*
X123745606Y-84320080D01*
X123820080Y-84245606D01*
X123872741Y-84154394D01*
X123900000Y-84052661D01*
X123900000Y-84046447D01*
X124579474Y-84725921D01*
X124611859Y-84681349D01*
X124704755Y-84499031D01*
X124767990Y-84304417D01*
X124800000Y-84102317D01*
X124800000Y-83897682D01*
X124767990Y-83695582D01*
X124758181Y-83665394D01*
X124747313Y-83631947D01*
X128250000Y-83631947D01*
X128250000Y-83868052D01*
X128286934Y-84101247D01*
X128359897Y-84325802D01*
X128467087Y-84536174D01*
X128527338Y-84619104D01*
X128527340Y-84619105D01*
X129226212Y-83920233D01*
X129237482Y-83962292D01*
X129309890Y-84087708D01*
X129412292Y-84190110D01*
X129537708Y-84262518D01*
X129579765Y-84273787D01*
X128880893Y-84972658D01*
X128963828Y-85032914D01*
X129174197Y-85140102D01*
X129398752Y-85213065D01*
X129398751Y-85213065D01*
X129631948Y-85250000D01*
X129868052Y-85250000D01*
X130101247Y-85213065D01*
X130325802Y-85140102D01*
X130536163Y-85032918D01*
X130536169Y-85032914D01*
X130619104Y-84972658D01*
X130619105Y-84972658D01*
X129920233Y-84273787D01*
X129962292Y-84262518D01*
X130087708Y-84190110D01*
X130190110Y-84087708D01*
X130262518Y-83962292D01*
X130273787Y-83920234D01*
X130972658Y-84619105D01*
X130972658Y-84619104D01*
X131032914Y-84536169D01*
X131032918Y-84536163D01*
X131140102Y-84325802D01*
X131213065Y-84101247D01*
X131250000Y-83868052D01*
X131250000Y-83631947D01*
X134750000Y-83631947D01*
X134750000Y-83868052D01*
X134786934Y-84101247D01*
X134859897Y-84325802D01*
X134967087Y-84536174D01*
X135027338Y-84619104D01*
X135027340Y-84619105D01*
X135726212Y-83920233D01*
X135737482Y-83962292D01*
X135809890Y-84087708D01*
X135912292Y-84190110D01*
X136037708Y-84262518D01*
X136079765Y-84273787D01*
X135380893Y-84972658D01*
X135463828Y-85032914D01*
X135674197Y-85140102D01*
X135898752Y-85213065D01*
X135898751Y-85213065D01*
X136131948Y-85250000D01*
X136368052Y-85250000D01*
X136601247Y-85213065D01*
X136825802Y-85140102D01*
X137036163Y-85032918D01*
X137036169Y-85032914D01*
X137119104Y-84972658D01*
X137119105Y-84972658D01*
X136420233Y-84273787D01*
X136462292Y-84262518D01*
X136587708Y-84190110D01*
X136690110Y-84087708D01*
X136762518Y-83962292D01*
X136773787Y-83920233D01*
X137472658Y-84619105D01*
X137472658Y-84619104D01*
X137532914Y-84536169D01*
X137532918Y-84536163D01*
X137640102Y-84325802D01*
X137713065Y-84101247D01*
X137750000Y-83868052D01*
X137750000Y-83631947D01*
X137713065Y-83398752D01*
X137640102Y-83174197D01*
X137532914Y-82963828D01*
X137472658Y-82880894D01*
X137472658Y-82880893D01*
X136773787Y-83579765D01*
X136762518Y-83537708D01*
X136690110Y-83412292D01*
X136587708Y-83309890D01*
X136462292Y-83237482D01*
X136420234Y-83226212D01*
X137119105Y-82527340D01*
X137119104Y-82527338D01*
X137036174Y-82467087D01*
X136825802Y-82359897D01*
X136601247Y-82286934D01*
X136601248Y-82286934D01*
X136368052Y-82250000D01*
X136131948Y-82250000D01*
X135898752Y-82286934D01*
X135674197Y-82359897D01*
X135463830Y-82467084D01*
X135380894Y-82527340D01*
X136079766Y-83226212D01*
X136037708Y-83237482D01*
X135912292Y-83309890D01*
X135809890Y-83412292D01*
X135737482Y-83537708D01*
X135726212Y-83579766D01*
X135027340Y-82880894D01*
X134967084Y-82963830D01*
X134859897Y-83174197D01*
X134786934Y-83398752D01*
X134750000Y-83631947D01*
X131250000Y-83631947D01*
X131213065Y-83398752D01*
X131140102Y-83174197D01*
X131032914Y-82963828D01*
X130972658Y-82880894D01*
X130972658Y-82880893D01*
X130273787Y-83579765D01*
X130262518Y-83537708D01*
X130190110Y-83412292D01*
X130087708Y-83309890D01*
X129962292Y-83237482D01*
X129920234Y-83226212D01*
X130619105Y-82527340D01*
X130619104Y-82527339D01*
X130536174Y-82467087D01*
X130325802Y-82359897D01*
X130101247Y-82286934D01*
X130101248Y-82286934D01*
X129868052Y-82250000D01*
X129631948Y-82250000D01*
X129398752Y-82286934D01*
X129174197Y-82359897D01*
X128963830Y-82467084D01*
X128880894Y-82527340D01*
X129579766Y-83226212D01*
X129537708Y-83237482D01*
X129412292Y-83309890D01*
X129309890Y-83412292D01*
X129237482Y-83537708D01*
X129226212Y-83579766D01*
X128527340Y-82880894D01*
X128467084Y-82963830D01*
X128359897Y-83174197D01*
X128286934Y-83398752D01*
X128250000Y-83631947D01*
X124747313Y-83631947D01*
X124704755Y-83500968D01*
X124611859Y-83318650D01*
X124579474Y-83274077D01*
X124579474Y-83274076D01*
X123900000Y-83953551D01*
X123900000Y-83947339D01*
X123872741Y-83845606D01*
X123820080Y-83754394D01*
X123745606Y-83679920D01*
X123654394Y-83627259D01*
X123552661Y-83600000D01*
X123546446Y-83600000D01*
X124225922Y-82920524D01*
X124225921Y-82920523D01*
X124181359Y-82888147D01*
X124181350Y-82888141D01*
X123999031Y-82795244D01*
X123804417Y-82732009D01*
X123602317Y-82700000D01*
X123397683Y-82700000D01*
X123195582Y-82732009D01*
X123000968Y-82795244D01*
X122818644Y-82888143D01*
X122774077Y-82920523D01*
X122774077Y-82920524D01*
X123453554Y-83600000D01*
X123447339Y-83600000D01*
X123345606Y-83627259D01*
X123254394Y-83679920D01*
X123179920Y-83754394D01*
X123127259Y-83845606D01*
X123100000Y-83947339D01*
X123100000Y-83953553D01*
X122420524Y-83274077D01*
X122420523Y-83274077D01*
X122388143Y-83318644D01*
X122295244Y-83500968D01*
X122232009Y-83695582D01*
X122200000Y-83897682D01*
X117651552Y-83897682D01*
X118358506Y-83190728D01*
X118358511Y-83190724D01*
X118368714Y-83180520D01*
X118368716Y-83180520D01*
X118480520Y-83068716D01*
X118559577Y-82931784D01*
X118600500Y-82779057D01*
X118600500Y-80109601D01*
X118620185Y-80042562D01*
X118668206Y-79999116D01*
X118681610Y-79992287D01*
X118847219Y-79871966D01*
X118991966Y-79727219D01*
X118991968Y-79727215D01*
X118991971Y-79727213D01*
X119112284Y-79561614D01*
X119112285Y-79561613D01*
X119112287Y-79561610D01*
X119119117Y-79548204D01*
X119167091Y-79497409D01*
X119229602Y-79480500D01*
X122209255Y-79480500D01*
X122276294Y-79500185D01*
X122319739Y-79548204D01*
X122326572Y-79561614D01*
X122387715Y-79681614D01*
X122508028Y-79847213D01*
X122652786Y-79991971D01*
X122807749Y-80104556D01*
X122818390Y-80112287D01*
X122934607Y-80171503D01*
X123000776Y-80205218D01*
X123000778Y-80205218D01*
X123000781Y-80205220D01*
X123069383Y-80227510D01*
X123195465Y-80268477D01*
X123296557Y-80284488D01*
X123397648Y-80300500D01*
X123397649Y-80300500D01*
X123602351Y-80300500D01*
X123602352Y-80300500D01*
X123804534Y-80268477D01*
X123999219Y-80205220D01*
X124181610Y-80112287D01*
X124289895Y-80033614D01*
X124347213Y-79991971D01*
X124347215Y-79991968D01*
X124347219Y-79991966D01*
X124452366Y-79886819D01*
X124513689Y-79853334D01*
X124540047Y-79850500D01*
X128295932Y-79850500D01*
X128362971Y-79870185D01*
X128406416Y-79918203D01*
X128466657Y-80036433D01*
X128605483Y-80227510D01*
X128772490Y-80394517D01*
X128963567Y-80533343D01*
X129062991Y-80584002D01*
X129174003Y-80640566D01*
X129174005Y-80640566D01*
X129174008Y-80640568D01*
X129294412Y-80679689D01*
X129398631Y-80713553D01*
X129631903Y-80750500D01*
X129631908Y-80750500D01*
X129868097Y-80750500D01*
X130101368Y-80713553D01*
X130325992Y-80640568D01*
X130536433Y-80533343D01*
X130727510Y-80394517D01*
X130894517Y-80227510D01*
X131033343Y-80036433D01*
X131093583Y-79918204D01*
X131141558Y-79867409D01*
X131204068Y-79850500D01*
X134795932Y-79850500D01*
X134862971Y-79870185D01*
X134906416Y-79918203D01*
X134966657Y-80036433D01*
X135105483Y-80227510D01*
X135272490Y-80394517D01*
X135463567Y-80533343D01*
X135562991Y-80584002D01*
X135674003Y-80640566D01*
X135674005Y-80640566D01*
X135674008Y-80640568D01*
X135794412Y-80679689D01*
X135898631Y-80713553D01*
X136131903Y-80750500D01*
X136131908Y-80750500D01*
X136368097Y-80750500D01*
X136601368Y-80713553D01*
X136825992Y-80640568D01*
X137036433Y-80533343D01*
X137227510Y-80394517D01*
X137394517Y-80227510D01*
X137533343Y-80036433D01*
X137640568Y-79825992D01*
X137713553Y-79601368D01*
X137750500Y-79368097D01*
X137750500Y-79131902D01*
X137713553Y-78898631D01*
X137640566Y-78674003D01*
X137552302Y-78500776D01*
X137533343Y-78463567D01*
X137394517Y-78272490D01*
X137227510Y-78105483D01*
X137036433Y-77966657D01*
X136825996Y-77859433D01*
X136601368Y-77786446D01*
X136368097Y-77749500D01*
X136368092Y-77749500D01*
X136131908Y-77749500D01*
X136131903Y-77749500D01*
X135898631Y-77786446D01*
X135674003Y-77859433D01*
X135463566Y-77966657D01*
X135354550Y-78045862D01*
X135272490Y-78105483D01*
X135272488Y-78105485D01*
X135272487Y-78105485D01*
X135105485Y-78272487D01*
X135105485Y-78272488D01*
X135105483Y-78272490D01*
X135100390Y-78279500D01*
X134966657Y-78463566D01*
X134948491Y-78499219D01*
X134908855Y-78577011D01*
X134906417Y-78581795D01*
X134858442Y-78632591D01*
X134795932Y-78649500D01*
X131204068Y-78649500D01*
X131137029Y-78629815D01*
X131093583Y-78581795D01*
X131033343Y-78463567D01*
X130894517Y-78272490D01*
X130727510Y-78105483D01*
X130536433Y-77966657D01*
X130325996Y-77859433D01*
X130101368Y-77786446D01*
X129868097Y-77749500D01*
X129868092Y-77749500D01*
X129631908Y-77749500D01*
X129631903Y-77749500D01*
X129398631Y-77786446D01*
X129174003Y-77859433D01*
X128963566Y-77966657D01*
X128854550Y-78045862D01*
X128772490Y-78105483D01*
X128772488Y-78105485D01*
X128772487Y-78105485D01*
X128605485Y-78272487D01*
X128605485Y-78272488D01*
X128605483Y-78272490D01*
X128600390Y-78279500D01*
X128466657Y-78463566D01*
X128448491Y-78499219D01*
X128408855Y-78577011D01*
X128406417Y-78581795D01*
X128358442Y-78632591D01*
X128295932Y-78649500D01*
X124843633Y-78649500D01*
X124776594Y-78629815D01*
X124730839Y-78577011D01*
X124725702Y-78563819D01*
X124705218Y-78500776D01*
X124671503Y-78434607D01*
X124612287Y-78318390D01*
X124578937Y-78272487D01*
X124491971Y-78152786D01*
X124347213Y-78008028D01*
X124181613Y-77887715D01*
X124181612Y-77887714D01*
X124181610Y-77887713D01*
X124124653Y-77858691D01*
X123999223Y-77794781D01*
X123804534Y-77731522D01*
X123629995Y-77703878D01*
X123602352Y-77699500D01*
X123397648Y-77699500D01*
X123373329Y-77703351D01*
X123195465Y-77731522D01*
X123000776Y-77794781D01*
X122818386Y-77887715D01*
X122652786Y-78008028D01*
X122508030Y-78152784D01*
X122453106Y-78228384D01*
X122397777Y-78271051D01*
X122352787Y-78279500D01*
X119229602Y-78279500D01*
X119162563Y-78259815D01*
X119119117Y-78211795D01*
X119112284Y-78198385D01*
X118991971Y-78032786D01*
X118847213Y-77888028D01*
X118681613Y-77767715D01*
X118681612Y-77767714D01*
X118681610Y-77767713D01*
X118610583Y-77731523D01*
X118499223Y-77674781D01*
X118304534Y-77611522D01*
X118129995Y-77583878D01*
X118102352Y-77579500D01*
X117897648Y-77579500D01*
X117873329Y-77583351D01*
X117695465Y-77611522D01*
X117500776Y-77674781D01*
X117318386Y-77767715D01*
X117152786Y-77888028D01*
X117008028Y-78032786D01*
X116887715Y-78198386D01*
X116794781Y-78380776D01*
X116731522Y-78575465D01*
X116699500Y-78777648D01*
X116699500Y-78982351D01*
X116731522Y-79184534D01*
X116794781Y-79379223D01*
X116887715Y-79561613D01*
X117008028Y-79727213D01*
X117008034Y-79727219D01*
X117152781Y-79871966D01*
X117318390Y-79992287D01*
X117331793Y-79999116D01*
X117382589Y-80047088D01*
X117399500Y-80109601D01*
X117399500Y-82399902D01*
X117379815Y-82466941D01*
X117363181Y-82487583D01*
X111512181Y-88338583D01*
X111450858Y-88372068D01*
X111381166Y-88367084D01*
X111325233Y-88325212D01*
X111300816Y-88259748D01*
X111300500Y-88250902D01*
X111300500Y-88057648D01*
X111268477Y-87855465D01*
X111219658Y-87705218D01*
X111205220Y-87660781D01*
X111205218Y-87660778D01*
X111205218Y-87660776D01*
X111163148Y-87578211D01*
X111112287Y-87478390D01*
X111054971Y-87399500D01*
X110991971Y-87312786D01*
X110847213Y-87168028D01*
X110681614Y-87047715D01*
X110675006Y-87044348D01*
X110588917Y-87000483D01*
X110538123Y-86952511D01*
X110521328Y-86884690D01*
X110543865Y-86818555D01*
X110588917Y-86779516D01*
X110681610Y-86732287D01*
X110702770Y-86716913D01*
X110847213Y-86611971D01*
X110847215Y-86611968D01*
X110847219Y-86611966D01*
X110991966Y-86467219D01*
X110991968Y-86467215D01*
X110991971Y-86467213D01*
X111044732Y-86394590D01*
X111112287Y-86301610D01*
X111205220Y-86119219D01*
X111268477Y-85924534D01*
X111300500Y-85722352D01*
X111300500Y-85517648D01*
X111268477Y-85315466D01*
X111205220Y-85120781D01*
X111205218Y-85120778D01*
X111205218Y-85120776D01*
X111160449Y-85032914D01*
X111112287Y-84938390D01*
X111104556Y-84927749D01*
X110991971Y-84772786D01*
X110847213Y-84628028D01*
X110681614Y-84507715D01*
X110664571Y-84499031D01*
X110588917Y-84460483D01*
X110538123Y-84412511D01*
X110521328Y-84344690D01*
X110543865Y-84278555D01*
X110588917Y-84239516D01*
X110681610Y-84192287D01*
X110733766Y-84154394D01*
X110847213Y-84071971D01*
X110847215Y-84071968D01*
X110847219Y-84071966D01*
X110991966Y-83927219D01*
X110991968Y-83927215D01*
X110991971Y-83927213D01*
X111068114Y-83822409D01*
X111112287Y-83761610D01*
X111205220Y-83579219D01*
X111268477Y-83384534D01*
X111300500Y-83182352D01*
X111300500Y-82977648D01*
X111286323Y-82888141D01*
X111268477Y-82775465D01*
X111205218Y-82580776D01*
X111147288Y-82467084D01*
X111112287Y-82398390D01*
X111104556Y-82387749D01*
X110991971Y-82232786D01*
X110847213Y-82088028D01*
X110681614Y-81967715D01*
X110675006Y-81964348D01*
X110588917Y-81920483D01*
X110538123Y-81872511D01*
X110521328Y-81804690D01*
X110543865Y-81738555D01*
X110588917Y-81699516D01*
X110681610Y-81652287D01*
X110702770Y-81636913D01*
X110847213Y-81531971D01*
X110847215Y-81531968D01*
X110847219Y-81531966D01*
X110991966Y-81387219D01*
X110991968Y-81387215D01*
X110991971Y-81387213D01*
X111044732Y-81314590D01*
X111112287Y-81221610D01*
X111205220Y-81039219D01*
X111268477Y-80844534D01*
X111300500Y-80642352D01*
X111300500Y-80437648D01*
X111268477Y-80235466D01*
X111265892Y-80227511D01*
X111248910Y-80175245D01*
X111205220Y-80040781D01*
X111205217Y-80040777D01*
X111205217Y-80040774D01*
X111126772Y-79886819D01*
X111112287Y-79858390D01*
X111088749Y-79825992D01*
X110991971Y-79692786D01*
X110847213Y-79548028D01*
X110681614Y-79427715D01*
X110675006Y-79424348D01*
X110588917Y-79380483D01*
X110538123Y-79332511D01*
X110521328Y-79264690D01*
X110543865Y-79198555D01*
X110588917Y-79159516D01*
X110681610Y-79112287D01*
X110702770Y-79096913D01*
X110847213Y-78991971D01*
X110847215Y-78991968D01*
X110847219Y-78991966D01*
X110991966Y-78847219D01*
X110991968Y-78847215D01*
X110991971Y-78847213D01*
X111044732Y-78774590D01*
X111112287Y-78681610D01*
X111205220Y-78499219D01*
X111268477Y-78304534D01*
X111300500Y-78102352D01*
X111300500Y-77897648D01*
X111268477Y-77695466D01*
X111205220Y-77500781D01*
X111205218Y-77500778D01*
X111205218Y-77500776D01*
X111171503Y-77434607D01*
X111112287Y-77318390D01*
X111104556Y-77307749D01*
X110991971Y-77152786D01*
X110847213Y-77008028D01*
X110681614Y-76887715D01*
X110675006Y-76884348D01*
X110588917Y-76840483D01*
X110538123Y-76792511D01*
X110521328Y-76724690D01*
X110543865Y-76658555D01*
X110588917Y-76619516D01*
X110681610Y-76572287D01*
X110702770Y-76556913D01*
X110847213Y-76451971D01*
X110847215Y-76451968D01*
X110847219Y-76451966D01*
X110991966Y-76307219D01*
X110991968Y-76307215D01*
X110991971Y-76307213D01*
X111044732Y-76234590D01*
X111112287Y-76141610D01*
X111205220Y-75959219D01*
X111268477Y-75764534D01*
X111300500Y-75562352D01*
X111300500Y-75357648D01*
X111268477Y-75155466D01*
X111205220Y-74960781D01*
X111205218Y-74960778D01*
X111205218Y-74960776D01*
X111171503Y-74894607D01*
X111112287Y-74778390D01*
X111104556Y-74767749D01*
X110991971Y-74612786D01*
X110847213Y-74468028D01*
X110681614Y-74347715D01*
X110675006Y-74344348D01*
X110588917Y-74300483D01*
X110538123Y-74252511D01*
X110521328Y-74184690D01*
X110543865Y-74118555D01*
X110588917Y-74079516D01*
X110681610Y-74032287D01*
X110702770Y-74016913D01*
X110847213Y-73911971D01*
X110847215Y-73911968D01*
X110847219Y-73911966D01*
X110991966Y-73767219D01*
X110991968Y-73767215D01*
X110991971Y-73767213D01*
X111044732Y-73694590D01*
X111112287Y-73601610D01*
X111205220Y-73419219D01*
X111268477Y-73224534D01*
X111300500Y-73022352D01*
X111300500Y-72817648D01*
X111268477Y-72615466D01*
X111205220Y-72420781D01*
X111205218Y-72420778D01*
X111205218Y-72420776D01*
X111171503Y-72354607D01*
X111112287Y-72238390D01*
X111104556Y-72227749D01*
X110991971Y-72072786D01*
X110847213Y-71928028D01*
X110681614Y-71807715D01*
X110675006Y-71804348D01*
X110588917Y-71760483D01*
X110538123Y-71712511D01*
X110521328Y-71644690D01*
X110543865Y-71578555D01*
X110588917Y-71539516D01*
X110681610Y-71492287D01*
X110785107Y-71417093D01*
X110847213Y-71371971D01*
X110847215Y-71371968D01*
X110847219Y-71371966D01*
X110991966Y-71227219D01*
X110991968Y-71227215D01*
X110991971Y-71227213D01*
X111112284Y-71061614D01*
X111112285Y-71061613D01*
X111112287Y-71061610D01*
X111119117Y-71048204D01*
X111167091Y-70997409D01*
X111229602Y-70980500D01*
X111913331Y-70980500D01*
X111913347Y-70980501D01*
X111920943Y-70980501D01*
X112079054Y-70980501D01*
X112079057Y-70980501D01*
X112231785Y-70939577D01*
X112281904Y-70910639D01*
X112368716Y-70860520D01*
X112480520Y-70748716D01*
X112480520Y-70748714D01*
X112490728Y-70738507D01*
X112490730Y-70738504D01*
X114935158Y-68294075D01*
X114996479Y-68260592D01*
X115061151Y-68263825D01*
X115075466Y-68268477D01*
X115277648Y-68300500D01*
X115277649Y-68300500D01*
X115482351Y-68300500D01*
X115482352Y-68300500D01*
X115684534Y-68268477D01*
X115879219Y-68205220D01*
X116061610Y-68112287D01*
X116154590Y-68044732D01*
X116227213Y-67991971D01*
X116227215Y-67991968D01*
X116227219Y-67991966D01*
X116371966Y-67847219D01*
X116371968Y-67847215D01*
X116371971Y-67847213D01*
X116424732Y-67774590D01*
X116492287Y-67681610D01*
X116585220Y-67499219D01*
X116648477Y-67304534D01*
X116680500Y-67102352D01*
X116680500Y-66897648D01*
X121699500Y-66897648D01*
X121699500Y-67102351D01*
X121731522Y-67304534D01*
X121794781Y-67499223D01*
X121830935Y-67570178D01*
X121883320Y-67672989D01*
X121887715Y-67681613D01*
X122008028Y-67847213D01*
X122152786Y-67991971D01*
X122307749Y-68104556D01*
X122318390Y-68112287D01*
X122434607Y-68171503D01*
X122500776Y-68205218D01*
X122500778Y-68205218D01*
X122500781Y-68205220D01*
X122605137Y-68239127D01*
X122695465Y-68268477D01*
X122796557Y-68284488D01*
X122897648Y-68300500D01*
X122897649Y-68300500D01*
X123102351Y-68300500D01*
X123102352Y-68300500D01*
X123304534Y-68268477D01*
X123499219Y-68205220D01*
X123681610Y-68112287D01*
X123774590Y-68044732D01*
X123847213Y-67991971D01*
X123847215Y-67991968D01*
X123847219Y-67991966D01*
X123991966Y-67847219D01*
X123991968Y-67847215D01*
X123991971Y-67847213D01*
X124112284Y-67681614D01*
X124112285Y-67681613D01*
X124112287Y-67681610D01*
X124119117Y-67668204D01*
X124167091Y-67617409D01*
X124229602Y-67600500D01*
X128475500Y-67600500D01*
X128542539Y-67620185D01*
X128588294Y-67672989D01*
X128599500Y-67724500D01*
X128599500Y-67845222D01*
X128616742Y-67954086D01*
X128633985Y-68062952D01*
X128702103Y-68272603D01*
X128702104Y-68272606D01*
X128802187Y-68469025D01*
X128931752Y-68647358D01*
X128931756Y-68647363D01*
X128982316Y-68697923D01*
X129015801Y-68759246D01*
X129010817Y-68828938D01*
X128968945Y-68884871D01*
X128937969Y-68901785D01*
X128857918Y-68931643D01*
X128857906Y-68931649D01*
X128742812Y-69017809D01*
X128742809Y-69017812D01*
X128656649Y-69132906D01*
X128656645Y-69132913D01*
X128606403Y-69267620D01*
X128606401Y-69267627D01*
X128600000Y-69327155D01*
X128600000Y-70025000D01*
X129624722Y-70025000D01*
X129580667Y-70101306D01*
X129550000Y-70215756D01*
X129550000Y-70334244D01*
X129580667Y-70448694D01*
X129624722Y-70525000D01*
X128600000Y-70525000D01*
X128600000Y-71222844D01*
X128606401Y-71282372D01*
X128606403Y-71282379D01*
X128656645Y-71417086D01*
X128656649Y-71417093D01*
X128742809Y-71532187D01*
X128742812Y-71532190D01*
X128857906Y-71618350D01*
X128857913Y-71618354D01*
X128992620Y-71668596D01*
X128992627Y-71668598D01*
X129052155Y-71674999D01*
X129052172Y-71675000D01*
X129750000Y-71675000D01*
X129750000Y-70650277D01*
X129826306Y-70694333D01*
X129940756Y-70725000D01*
X130059244Y-70725000D01*
X130173694Y-70694333D01*
X130250000Y-70650277D01*
X130250000Y-71675000D01*
X130947828Y-71675000D01*
X130947844Y-71674999D01*
X131007372Y-71668598D01*
X131007379Y-71668596D01*
X131142086Y-71618354D01*
X131142093Y-71618350D01*
X131257187Y-71532190D01*
X131257190Y-71532187D01*
X131343350Y-71417093D01*
X131343354Y-71417086D01*
X131393596Y-71282379D01*
X131393598Y-71282372D01*
X131399999Y-71222844D01*
X131400000Y-71222827D01*
X131400000Y-70525000D01*
X130375278Y-70525000D01*
X130419333Y-70448694D01*
X130450000Y-70334244D01*
X130450000Y-70215756D01*
X130419333Y-70101306D01*
X130375278Y-70025000D01*
X131400000Y-70025000D01*
X131400000Y-69327172D01*
X131399999Y-69327155D01*
X131393598Y-69267627D01*
X131393596Y-69267620D01*
X131343354Y-69132913D01*
X131343350Y-69132906D01*
X131257190Y-69017812D01*
X131257187Y-69017809D01*
X131142093Y-68931649D01*
X131142087Y-68931646D01*
X131062030Y-68901786D01*
X131006097Y-68859914D01*
X130981680Y-68794450D01*
X130996532Y-68726177D01*
X131017681Y-68697925D01*
X131068242Y-68647365D01*
X131197815Y-68469022D01*
X131297895Y-68272606D01*
X131366015Y-68062951D01*
X131400500Y-67845222D01*
X131400500Y-67624778D01*
X131366015Y-67407049D01*
X131331955Y-67302221D01*
X131297896Y-67197396D01*
X131297895Y-67197393D01*
X131249468Y-67102352D01*
X131197815Y-67000978D01*
X131119119Y-66892661D01*
X131068247Y-66822641D01*
X131068243Y-66822636D01*
X130912363Y-66666756D01*
X130912358Y-66666752D01*
X130734025Y-66537187D01*
X130734024Y-66537186D01*
X130734022Y-66537185D01*
X130662566Y-66500776D01*
X130537606Y-66437104D01*
X130537603Y-66437103D01*
X130327952Y-66368985D01*
X130142769Y-66339655D01*
X130110222Y-66334500D01*
X129889778Y-66334500D01*
X129857237Y-66339654D01*
X129672045Y-66368985D01*
X129507273Y-66422522D01*
X129437432Y-66424517D01*
X129436863Y-66424366D01*
X129344057Y-66399499D01*
X129185943Y-66399499D01*
X129178347Y-66399499D01*
X129178331Y-66399500D01*
X124229602Y-66399500D01*
X124162563Y-66379815D01*
X124119117Y-66331795D01*
X124112284Y-66318385D01*
X123991971Y-66152786D01*
X123847213Y-66008028D01*
X123681613Y-65887715D01*
X123681612Y-65887714D01*
X123681610Y-65887713D01*
X123624653Y-65858691D01*
X123499223Y-65794781D01*
X123304534Y-65731522D01*
X123129995Y-65703878D01*
X123102352Y-65699500D01*
X122897648Y-65699500D01*
X122873329Y-65703351D01*
X122695465Y-65731522D01*
X122500776Y-65794781D01*
X122318386Y-65887715D01*
X122152786Y-66008028D01*
X122008028Y-66152786D01*
X121887715Y-66318386D01*
X121794781Y-66500776D01*
X121731522Y-66695465D01*
X121699500Y-66897648D01*
X116680500Y-66897648D01*
X116668619Y-66822635D01*
X116648477Y-66695465D01*
X116597048Y-66537185D01*
X116585220Y-66500781D01*
X116585218Y-66500778D01*
X116585218Y-66500776D01*
X116546361Y-66424517D01*
X116492287Y-66318390D01*
X116457146Y-66270022D01*
X116371971Y-66152786D01*
X116227213Y-66008028D01*
X116061613Y-65887715D01*
X116061612Y-65887714D01*
X116061610Y-65887713D01*
X116004653Y-65858691D01*
X115879223Y-65794781D01*
X115684534Y-65731522D01*
X115509995Y-65703878D01*
X115482352Y-65699500D01*
X115277648Y-65699500D01*
X115253329Y-65703351D01*
X115075465Y-65731522D01*
X114880776Y-65794781D01*
X114698386Y-65887715D01*
X114532786Y-66008028D01*
X114388028Y-66152786D01*
X114267715Y-66318386D01*
X114174781Y-66500776D01*
X114111522Y-66695465D01*
X114079500Y-66897648D01*
X114079500Y-67102351D01*
X114111522Y-67304534D01*
X114116173Y-67318848D01*
X114118165Y-67388690D01*
X114085921Y-67444842D01*
X111787584Y-69743181D01*
X111726261Y-69776666D01*
X111699903Y-69779500D01*
X111229602Y-69779500D01*
X111162563Y-69759815D01*
X111119117Y-69711795D01*
X111112284Y-69698385D01*
X110991971Y-69532786D01*
X110847213Y-69388028D01*
X110681613Y-69267715D01*
X110681612Y-69267714D01*
X110681610Y-69267713D01*
X110624653Y-69238691D01*
X110499223Y-69174781D01*
X110304534Y-69111522D01*
X110129995Y-69083878D01*
X110102352Y-69079500D01*
X109897648Y-69079500D01*
X109873329Y-69083351D01*
X109695465Y-69111522D01*
X109500776Y-69174781D01*
X109318386Y-69267715D01*
X109152786Y-69388028D01*
X109008028Y-69532786D01*
X108887715Y-69698386D01*
X108794781Y-69880776D01*
X108731522Y-70075465D01*
X108699500Y-70277648D01*
X96060500Y-70277648D01*
X96028477Y-70075466D01*
X95965220Y-69880781D01*
X95965218Y-69880778D01*
X95965218Y-69880776D01*
X95931503Y-69814607D01*
X95872287Y-69698390D01*
X95864556Y-69687749D01*
X95751971Y-69532786D01*
X95607213Y-69388028D01*
X95441613Y-69267715D01*
X95441612Y-69267714D01*
X95441610Y-69267713D01*
X95384653Y-69238691D01*
X95259223Y-69174781D01*
X95064534Y-69111522D01*
X94889995Y-69083878D01*
X94862352Y-69079500D01*
X94657648Y-69079500D01*
X94633329Y-69083351D01*
X94455465Y-69111522D01*
X94260776Y-69174781D01*
X94078386Y-69267715D01*
X93912786Y-69388028D01*
X93768028Y-69532786D01*
X93647715Y-69698386D01*
X93554781Y-69880776D01*
X93491522Y-70075465D01*
X93459500Y-70277648D01*
X93459500Y-70482351D01*
X93491522Y-70684534D01*
X93554781Y-70879223D01*
X93647715Y-71061613D01*
X93768028Y-71227213D01*
X93912786Y-71371971D01*
X94067749Y-71484556D01*
X94078390Y-71492287D01*
X94156698Y-71532187D01*
X94171080Y-71539515D01*
X94221876Y-71587490D01*
X94238671Y-71655311D01*
X94216134Y-71721446D01*
X94171080Y-71760485D01*
X94078386Y-71807715D01*
X93912786Y-71928028D01*
X93768028Y-72072786D01*
X93647715Y-72238386D01*
X93554781Y-72420776D01*
X93491522Y-72615465D01*
X93459500Y-72817648D01*
X93459500Y-73022351D01*
X93491522Y-73224534D01*
X93554781Y-73419223D01*
X93647715Y-73601613D01*
X93768028Y-73767213D01*
X93912786Y-73911971D01*
X94067749Y-74024556D01*
X94078390Y-74032287D01*
X94169840Y-74078883D01*
X94171080Y-74079515D01*
X94221876Y-74127490D01*
X94238671Y-74195311D01*
X94216134Y-74261446D01*
X94171080Y-74300485D01*
X94078386Y-74347715D01*
X93912786Y-74468028D01*
X93768028Y-74612786D01*
X93647715Y-74778386D01*
X93554781Y-74960776D01*
X93491522Y-75155465D01*
X93459500Y-75357648D01*
X93459500Y-75562351D01*
X93491522Y-75764534D01*
X93554781Y-75959223D01*
X93647715Y-76141613D01*
X93768028Y-76307213D01*
X93912786Y-76451971D01*
X94067749Y-76564556D01*
X94078390Y-76572287D01*
X94169840Y-76618883D01*
X94171080Y-76619515D01*
X94221876Y-76667490D01*
X94238671Y-76735311D01*
X94216134Y-76801446D01*
X94171080Y-76840485D01*
X94078386Y-76887715D01*
X93912786Y-77008028D01*
X93768028Y-77152786D01*
X93647715Y-77318386D01*
X93554781Y-77500776D01*
X93491522Y-77695465D01*
X93459500Y-77897648D01*
X93459500Y-78102351D01*
X93491522Y-78304534D01*
X93554781Y-78499223D01*
X93647715Y-78681613D01*
X93768028Y-78847213D01*
X93912786Y-78991971D01*
X94067749Y-79104556D01*
X94078390Y-79112287D01*
X94169840Y-79158883D01*
X94171080Y-79159515D01*
X94221876Y-79207490D01*
X94238671Y-79275311D01*
X94216134Y-79341446D01*
X94171080Y-79380485D01*
X94078386Y-79427715D01*
X93912786Y-79548028D01*
X93768028Y-79692786D01*
X93647715Y-79858386D01*
X93554783Y-80040774D01*
X93554782Y-80040777D01*
X93554780Y-80040781D01*
X93552731Y-80047088D01*
X93491522Y-80235465D01*
X93459500Y-80437648D01*
X93459500Y-80642351D01*
X93491522Y-80844534D01*
X93554781Y-81039223D01*
X93647715Y-81221613D01*
X93768028Y-81387213D01*
X93912786Y-81531971D01*
X94067749Y-81644556D01*
X94078390Y-81652287D01*
X94169840Y-81698883D01*
X94171080Y-81699515D01*
X94221876Y-81747490D01*
X94238671Y-81815311D01*
X94216134Y-81881446D01*
X94171080Y-81920485D01*
X94078386Y-81967715D01*
X93912786Y-82088028D01*
X93768028Y-82232786D01*
X93647715Y-82398386D01*
X93554781Y-82580776D01*
X93491522Y-82775465D01*
X93459500Y-82977648D01*
X93459500Y-83182351D01*
X93491522Y-83384534D01*
X93554781Y-83579223D01*
X93598688Y-83665394D01*
X93644036Y-83754394D01*
X93647715Y-83761613D01*
X93768028Y-83927213D01*
X93912786Y-84071971D01*
X94026234Y-84154394D01*
X94078390Y-84192287D01*
X94169840Y-84238883D01*
X94171080Y-84239515D01*
X94221876Y-84287490D01*
X94238671Y-84355311D01*
X94216134Y-84421446D01*
X94171080Y-84460485D01*
X94078386Y-84507715D01*
X93912786Y-84628028D01*
X93768028Y-84772786D01*
X93647715Y-84938386D01*
X93554781Y-85120776D01*
X93491522Y-85315465D01*
X93459500Y-85517648D01*
X93459500Y-85722351D01*
X93491522Y-85924534D01*
X93554781Y-86119223D01*
X93647715Y-86301613D01*
X93768028Y-86467213D01*
X93912786Y-86611971D01*
X94067749Y-86724556D01*
X94078390Y-86732287D01*
X94169840Y-86778883D01*
X94171080Y-86779515D01*
X94221876Y-86827490D01*
X94238671Y-86895311D01*
X94216134Y-86961446D01*
X94171080Y-87000485D01*
X94078386Y-87047715D01*
X93912786Y-87168028D01*
X93768028Y-87312786D01*
X93647715Y-87478385D01*
X93640883Y-87491795D01*
X93592909Y-87542591D01*
X93530398Y-87559500D01*
X85346670Y-87559500D01*
X85346654Y-87559499D01*
X85339058Y-87559499D01*
X85180943Y-87559499D01*
X85047429Y-87595275D01*
X85015335Y-87599500D01*
X84779766Y-87599500D01*
X84712727Y-87579815D01*
X84710875Y-87578602D01*
X84579185Y-87490609D01*
X84579172Y-87490602D01*
X84433501Y-87430264D01*
X84433489Y-87430261D01*
X84278845Y-87399500D01*
X84278842Y-87399500D01*
X84121158Y-87399500D01*
X84121155Y-87399500D01*
X83966510Y-87430261D01*
X83966498Y-87430264D01*
X83820827Y-87490602D01*
X83820814Y-87490609D01*
X83689125Y-87578602D01*
X83622447Y-87599480D01*
X83620234Y-87599500D01*
X76379057Y-87599500D01*
X76220942Y-87599500D01*
X76068215Y-87640423D01*
X76068214Y-87640423D01*
X76068212Y-87640424D01*
X76068209Y-87640425D01*
X76018096Y-87669359D01*
X76018095Y-87669360D01*
X75974689Y-87694420D01*
X75931285Y-87719479D01*
X75931282Y-87719481D01*
X67726870Y-95923893D01*
X67726866Y-95923898D01*
X67703947Y-95963598D01*
X67703946Y-95963600D01*
X67647812Y-96060826D01*
X67606888Y-96213554D01*
X67606888Y-96213556D01*
X67606888Y-96381657D01*
X67606889Y-96381670D01*
X67606889Y-97740500D01*
X67587204Y-97807539D01*
X67534400Y-97853294D01*
X67482889Y-97864500D01*
X66879645Y-97864500D01*
X66810033Y-97870825D01*
X66810022Y-97870828D01*
X66649824Y-97920747D01*
X66649820Y-97920749D01*
X66506222Y-98007556D01*
X66506217Y-98007560D01*
X66387560Y-98126217D01*
X66387556Y-98126222D01*
X66300750Y-98269819D01*
X66300749Y-98269821D01*
X66300749Y-98269822D01*
X66297635Y-98279815D01*
X66250826Y-98430032D01*
X66244500Y-98499655D01*
X66244500Y-99500354D01*
X66250825Y-99569966D01*
X66250827Y-99569974D01*
X66274139Y-99644783D01*
X66275291Y-99714643D01*
X66238490Y-99774036D01*
X66203346Y-99790790D01*
X66188463Y-99805674D01*
X66188463Y-99867879D01*
X66168778Y-99934918D01*
X66115974Y-99980673D01*
X66046816Y-99990617D01*
X65983260Y-99961592D01*
X65976782Y-99955560D01*
X65951562Y-99930340D01*
X65810987Y-99930340D01*
X65743948Y-99910655D01*
X65698193Y-99857851D01*
X65688249Y-99788693D01*
X65710669Y-99733454D01*
X65713048Y-99730180D01*
X65811167Y-99595132D01*
X65892309Y-99435881D01*
X65910922Y-99378595D01*
X65947539Y-99265901D01*
X65947539Y-99265900D01*
X65947540Y-99265897D01*
X65975500Y-99089366D01*
X65975500Y-98910634D01*
X65947540Y-98734103D01*
X65947539Y-98734099D01*
X65947539Y-98734098D01*
X65892310Y-98564121D01*
X65892308Y-98564118D01*
X65867394Y-98515220D01*
X65811167Y-98404868D01*
X65706111Y-98260272D01*
X65579728Y-98133889D01*
X65435132Y-98028833D01*
X65275881Y-97947691D01*
X65275878Y-97947689D01*
X65105899Y-97892460D01*
X64972438Y-97871322D01*
X64929366Y-97864500D01*
X64750634Y-97864500D01*
X64707562Y-97871322D01*
X64574101Y-97892460D01*
X64574098Y-97892460D01*
X64404121Y-97947689D01*
X64404118Y-97947691D01*
X64244867Y-98028833D01*
X64100270Y-98133890D01*
X63973890Y-98260270D01*
X63868833Y-98404867D01*
X63787691Y-98564118D01*
X63787689Y-98564121D01*
X63732460Y-98734098D01*
X63732460Y-98734101D01*
X63704500Y-98910634D01*
X61500500Y-98910634D01*
X61500500Y-66750668D01*
X67865000Y-66750668D01*
X67865000Y-66929331D01*
X67892946Y-67105780D01*
X67948155Y-67275693D01*
X68029260Y-67434869D01*
X68038651Y-67447793D01*
X68038652Y-67447794D01*
X68600000Y-66886446D01*
X68600000Y-66892661D01*
X68627259Y-66994394D01*
X68679920Y-67085606D01*
X68754394Y-67160080D01*
X68845606Y-67212741D01*
X68947339Y-67240000D01*
X68953554Y-67240000D01*
X68392205Y-67801347D01*
X68392205Y-67801348D01*
X68405129Y-67810738D01*
X68564306Y-67891844D01*
X68734219Y-67947053D01*
X68910669Y-67975000D01*
X69089331Y-67975000D01*
X69265780Y-67947053D01*
X69435693Y-67891844D01*
X69594867Y-67810739D01*
X69594872Y-67810737D01*
X69607794Y-67801347D01*
X69046447Y-67240000D01*
X69052661Y-67240000D01*
X69154394Y-67212741D01*
X69245606Y-67160080D01*
X69320080Y-67085606D01*
X69372741Y-66994394D01*
X69400000Y-66892661D01*
X69400000Y-66886446D01*
X69961347Y-67447794D01*
X69970737Y-67434872D01*
X69970739Y-67434867D01*
X70051844Y-67275693D01*
X70107053Y-67105780D01*
X70135000Y-66929331D01*
X70135000Y-66750668D01*
X70107053Y-66574219D01*
X70051843Y-66404304D01*
X70046154Y-66393139D01*
X70046153Y-66393138D01*
X70018902Y-66339655D01*
X72944500Y-66339655D01*
X72944500Y-67340354D01*
X72950825Y-67409966D01*
X72950828Y-67409977D01*
X73000747Y-67570175D01*
X73000749Y-67570179D01*
X73087556Y-67713777D01*
X73087560Y-67713782D01*
X73206217Y-67832439D01*
X73206222Y-67832443D01*
X73304485Y-67891844D01*
X73349822Y-67919251D01*
X73510029Y-67969173D01*
X73579653Y-67975500D01*
X74580346Y-67975499D01*
X74580353Y-67975499D01*
X74649966Y-67969174D01*
X74649969Y-67969173D01*
X74649971Y-67969173D01*
X74810178Y-67919251D01*
X74929344Y-67847213D01*
X74953777Y-67832443D01*
X74953778Y-67832441D01*
X74953783Y-67832439D01*
X75072439Y-67713783D01*
X75159251Y-67570178D01*
X75209173Y-67409971D01*
X75215500Y-67340347D01*
X75215499Y-66339655D01*
X78024500Y-66339655D01*
X78024500Y-67340354D01*
X78030825Y-67409966D01*
X78030828Y-67409977D01*
X78080747Y-67570175D01*
X78080749Y-67570179D01*
X78167556Y-67713777D01*
X78167560Y-67713782D01*
X78286217Y-67832439D01*
X78286222Y-67832443D01*
X78384485Y-67891844D01*
X78429822Y-67919251D01*
X78590029Y-67969173D01*
X78659653Y-67975500D01*
X79660346Y-67975499D01*
X79660353Y-67975499D01*
X79729966Y-67969174D01*
X79729969Y-67969173D01*
X79729971Y-67969173D01*
X79890178Y-67919251D01*
X80009344Y-67847213D01*
X80033777Y-67832443D01*
X80033778Y-67832441D01*
X80033783Y-67832439D01*
X80152439Y-67713783D01*
X80239251Y-67570178D01*
X80289173Y-67409971D01*
X80295500Y-67340347D01*
X80295499Y-66339655D01*
X83104500Y-66339655D01*
X83104500Y-67340354D01*
X83110825Y-67409966D01*
X83110828Y-67409977D01*
X83160747Y-67570175D01*
X83160749Y-67570179D01*
X83247556Y-67713777D01*
X83247560Y-67713782D01*
X83366217Y-67832439D01*
X83366222Y-67832443D01*
X83464485Y-67891844D01*
X83509822Y-67919251D01*
X83670029Y-67969173D01*
X83739653Y-67975500D01*
X84740346Y-67975499D01*
X84740353Y-67975499D01*
X84809966Y-67969174D01*
X84809969Y-67969173D01*
X84809971Y-67969173D01*
X84970178Y-67919251D01*
X85089344Y-67847213D01*
X85113777Y-67832443D01*
X85113778Y-67832441D01*
X85113783Y-67832439D01*
X85232439Y-67713783D01*
X85319251Y-67570178D01*
X85369173Y-67409971D01*
X85375500Y-67340347D01*
X85375499Y-66339654D01*
X85375499Y-66339653D01*
X85375499Y-66339645D01*
X85369174Y-66270033D01*
X85369171Y-66270022D01*
X85319252Y-66109824D01*
X85319250Y-66109820D01*
X85232443Y-65966222D01*
X85232439Y-65966217D01*
X85113782Y-65847560D01*
X85113777Y-65847556D01*
X84970180Y-65760750D01*
X84970179Y-65760749D01*
X84970178Y-65760749D01*
X84809971Y-65710827D01*
X84809969Y-65710826D01*
X84809967Y-65710826D01*
X84761221Y-65706396D01*
X84740347Y-65704500D01*
X84740344Y-65704500D01*
X83739645Y-65704500D01*
X83670033Y-65710825D01*
X83670022Y-65710828D01*
X83509824Y-65760747D01*
X83509820Y-65760749D01*
X83366222Y-65847556D01*
X83366217Y-65847560D01*
X83247560Y-65966217D01*
X83247556Y-65966222D01*
X83160750Y-66109819D01*
X83110826Y-66270032D01*
X83104500Y-66339655D01*
X80295499Y-66339655D01*
X80295499Y-66339654D01*
X80295499Y-66339653D01*
X80295499Y-66339645D01*
X80289174Y-66270033D01*
X80289171Y-66270022D01*
X80239252Y-66109824D01*
X80239250Y-66109820D01*
X80152443Y-65966222D01*
X80152439Y-65966217D01*
X80033782Y-65847560D01*
X80033777Y-65847556D01*
X79890180Y-65760750D01*
X79890179Y-65760749D01*
X79890178Y-65760749D01*
X79729971Y-65710827D01*
X79729969Y-65710826D01*
X79729967Y-65710826D01*
X79681221Y-65706396D01*
X79660347Y-65704500D01*
X79660344Y-65704500D01*
X78659645Y-65704500D01*
X78590033Y-65710825D01*
X78590022Y-65710828D01*
X78429824Y-65760747D01*
X78429820Y-65760749D01*
X78286222Y-65847556D01*
X78286217Y-65847560D01*
X78167560Y-65966217D01*
X78167556Y-65966222D01*
X78080750Y-66109819D01*
X78030826Y-66270032D01*
X78024500Y-66339655D01*
X75215499Y-66339655D01*
X75215499Y-66339654D01*
X75215499Y-66339653D01*
X75215499Y-66339645D01*
X75209174Y-66270033D01*
X75209171Y-66270022D01*
X75159252Y-66109824D01*
X75159250Y-66109820D01*
X75072443Y-65966222D01*
X75072439Y-65966217D01*
X74953782Y-65847560D01*
X74953777Y-65847556D01*
X74810180Y-65760750D01*
X74810179Y-65760749D01*
X74810178Y-65760749D01*
X74649971Y-65710827D01*
X74649969Y-65710826D01*
X74649967Y-65710826D01*
X74601221Y-65706396D01*
X74580347Y-65704500D01*
X74580344Y-65704500D01*
X73579645Y-65704500D01*
X73510033Y-65710825D01*
X73510022Y-65710828D01*
X73349824Y-65760747D01*
X73349820Y-65760749D01*
X73206222Y-65847556D01*
X73206217Y-65847560D01*
X73087560Y-65966217D01*
X73087556Y-65966222D01*
X73000750Y-66109819D01*
X72950826Y-66270032D01*
X72944500Y-66339655D01*
X70018902Y-66339655D01*
X69970738Y-66245129D01*
X69961347Y-66232205D01*
X69400000Y-66793552D01*
X69400000Y-66787339D01*
X69372741Y-66685606D01*
X69320080Y-66594394D01*
X69245606Y-66519920D01*
X69154394Y-66467259D01*
X69052661Y-66440000D01*
X69046447Y-66440000D01*
X69607794Y-65878652D01*
X69607793Y-65878651D01*
X69594869Y-65869260D01*
X69435693Y-65788155D01*
X69265780Y-65732946D01*
X69089331Y-65705000D01*
X68910669Y-65705000D01*
X68734219Y-65732946D01*
X68564306Y-65788155D01*
X68405127Y-65869262D01*
X68392205Y-65878651D01*
X68392204Y-65878651D01*
X68953554Y-66440000D01*
X68947339Y-66440000D01*
X68845606Y-66467259D01*
X68754394Y-66519920D01*
X68679920Y-66594394D01*
X68627259Y-66685606D01*
X68600000Y-66787339D01*
X68600000Y-66793553D01*
X68038651Y-66232204D01*
X68038651Y-66232205D01*
X68029262Y-66245127D01*
X67948155Y-66404306D01*
X67892946Y-66574219D01*
X67865000Y-66750668D01*
X61500500Y-66750668D01*
X61500500Y-63624500D01*
X61520185Y-63557461D01*
X61572989Y-63511706D01*
X61624500Y-63500500D01*
X138375500Y-63500500D01*
X138442539Y-63520185D01*
G37*
G04 #@! TD.AperFunction*
M02*
