G04 #@! TF.GenerationSoftware,KiCad,Pcbnew,10.0.6*
G04 #@! TF.CreationDate,2026-09-02T03:31:27+08:00*
G04 #@! TF.ProjectId,'atmega328p-blink-board,2761746d-6567-4613-9332-38702d626c69,rev?*
G04 #@! TF.SameCoordinates,Original*
G04 #@! TF.FileFunction,Copper,L2,Inr*
G04 #@! TF.FilePolarity,Positive*
%FSLAX46Y46*%
G04 Gerber Fmt 4.6, Leading zero omitted, Abs format (unit mm)*
G04 Created by KiCad (PCBNEW 10.0.6) date 2026-09-02 03:31:27*
%MOMM*%
%LPD*%
G01*
G04 APERTURE LIST*
G04 Aperture macros list*
%AMRoundRect*
0 Rectangle with rounded corners*
0 $1 Rounding radius*
0 $2 $3 $4 $5 $6 $7 $8 $9 X,Y pos of 4 corners*
0 Add a 4 corners polygon primitive as box body*
4,1,4,$2,$3,$4,$5,$6,$7,$8,$9,$2,$3,0*
0 Add four circle primitives for the rounded corners*
1,1,$1+$1,$2,$3*
1,1,$1+$1,$4,$5*
1,1,$1+$1,$6,$7*
1,1,$1+$1,$8,$9*
0 Add four rect primitives between the rounded corners*
20,1,$1+$1,$2,$3,$4,$5,0*
20,1,$1+$1,$4,$5,$6,$7,0*
20,1,$1+$1,$6,$7,$8,$9,0*
20,1,$1+$1,$8,$9,$2,$3,0*%
G04 Aperture macros list end*
G04 #@! TA.AperFunction,ComponentPad*
%ADD10RoundRect,0.190500X-0.444500X-0.444500X0.444500X-0.444500X0.444500X0.444500X-0.444500X0.444500X0*%
G04 #@! TD*
G04 #@! TA.AperFunction,ComponentPad*
%ADD11O,1.270000X1.270000*%
G04 #@! TD*
G04 #@! TA.AperFunction,ComponentPad*
%ADD12C,1.600000*%
G04 #@! TD*
G04 #@! TA.AperFunction,ComponentPad*
%ADD13C,1.270000*%
G04 #@! TD*
G04 #@! TA.AperFunction,ComponentPad*
%ADD14C,2.000000*%
G04 #@! TD*
G04 #@! TA.AperFunction,ComponentPad*
%ADD15R,1.800000X1.800000*%
G04 #@! TD*
G04 #@! TA.AperFunction,ComponentPad*
%ADD16C,1.800000*%
G04 #@! TD*
G04 #@! TA.AperFunction,ComponentPad*
%ADD17R,1.600000X1.600000*%
G04 #@! TD*
G04 #@! TA.AperFunction,ComponentPad*
%ADD18O,1.600000X1.600000*%
G04 #@! TD*
G04 #@! TA.AperFunction,ViaPad*
%ADD19C,0.600000*%
G04 #@! TD*
G04 APERTURE END LIST*
D10*
X75000000Y-99000000D03*
X72460000Y-99000000D03*
X69920000Y-99000000D03*
X67380000Y-99000000D03*
D11*
X64840000Y-99000000D03*
D12*
X123500000Y-84000000D03*
X123500000Y-79000000D03*
X115380000Y-67000000D03*
X123000000Y-67000000D03*
X118000000Y-78880000D03*
X118000000Y-86500000D03*
D10*
X84240000Y-66840000D03*
X79160000Y-66840000D03*
X74080000Y-66840000D03*
D13*
X69000000Y-66840000D03*
D14*
X136250000Y-83750000D03*
X129750000Y-83750000D03*
X136250000Y-79250000D03*
X129750000Y-79250000D03*
X136750000Y-94250000D03*
X130250000Y-94250000D03*
X136750000Y-89750000D03*
X130250000Y-89750000D03*
X136750000Y-106250000D03*
X130250000Y-106250000D03*
X136750000Y-101750000D03*
X130250000Y-101750000D03*
D12*
X117500000Y-97310000D03*
X117500000Y-89690000D03*
X117500000Y-109000000D03*
X117500000Y-101380000D03*
D15*
X130000000Y-70275000D03*
D16*
X130000000Y-67735000D03*
D12*
X123500000Y-90000000D03*
X123500000Y-95000000D03*
X123500000Y-101500000D03*
X123500000Y-106500000D03*
D17*
X110000000Y-105940000D03*
D18*
X110000000Y-103400000D03*
X110000000Y-100860000D03*
X110000000Y-98320000D03*
X110000000Y-95780000D03*
X110000000Y-93240000D03*
X110000000Y-90700000D03*
X110000000Y-88160000D03*
X110000000Y-85620000D03*
X110000000Y-83080000D03*
X110000000Y-80540000D03*
X110000000Y-78000000D03*
X110000000Y-75460000D03*
X110000000Y-72920000D03*
X110000000Y-70380000D03*
X94760000Y-70380000D03*
X94760000Y-72920000D03*
X94760000Y-75460000D03*
X94760000Y-78000000D03*
X94760000Y-80540000D03*
X94760000Y-83080000D03*
X94760000Y-85620000D03*
X94760000Y-88160000D03*
X94760000Y-90700000D03*
X94760000Y-93240000D03*
X94760000Y-95780000D03*
X94760000Y-98320000D03*
X94760000Y-100860000D03*
X94760000Y-103400000D03*
X94760000Y-105940000D03*
D19*
X84200000Y-88200000D03*
X79200000Y-90700000D03*
M02*
