M48
; DRILL file KiCad 10.0.6 date 2026-09-02T03:30:32
; FORMAT={-:-/ absolute / metric / decimal}
; #@! TF.CreationDate,2026-09-02T03:30:32+08:00
; #@! TF.GenerationSoftware,Kicad,Pcbnew,10.0.6
; #@! TF.FileFunction,Plated,1,4,PTH
FMAT,2
METRIC
; #@! TA.AperFunction,Plated,PTH,ViaDrill
T1C0.300
; #@! TA.AperFunction,Plated,PTH,ComponentDrill
T2C0.800
; #@! TA.AperFunction,Plated,PTH,ComponentDrill
T3C0.900
; #@! TA.AperFunction,Plated,PTH,ComponentDrill
T4C1.000
; #@! TA.AperFunction,Plated,PTH,ComponentDrill
T5C1.100
%
G90
G05
T1
X79.2Y-90.7
X84.2Y-88.2
T2
X64.84Y-99.0
X67.38Y-99.0
X69.0Y-66.84
X69.92Y-99.0
X72.46Y-99.0
X74.08Y-66.84
X75.0Y-99.0
X79.16Y-66.84
X84.24Y-66.84
X115.38Y-67.0
X117.5Y-89.69
X117.5Y-97.31
X117.5Y-101.38
X117.5Y-109.0
X118.0Y-78.88
X118.0Y-86.5
X123.0Y-67.0
X123.5Y-79.0
X123.5Y-84.0
X123.5Y-90.0
X123.5Y-95.0
X123.5Y-101.5
X123.5Y-106.5
T3
X130.0Y-67.735
X130.0Y-70.275
T4
X94.76Y-70.38
X94.76Y-72.92
X94.76Y-75.46
X94.76Y-78.0
X94.76Y-80.54
X94.76Y-83.08
X94.76Y-85.62
X94.76Y-88.16
X94.76Y-90.7
X94.76Y-93.24
X94.76Y-95.78
X94.76Y-98.32
X94.76Y-100.86
X94.76Y-103.4
X94.76Y-105.94
X110.0Y-70.38
X110.0Y-72.92
X110.0Y-75.46
X110.0Y-78.0
X110.0Y-80.54
X110.0Y-83.08
X110.0Y-85.62
X110.0Y-88.16
X110.0Y-90.7
X110.0Y-93.24
X110.0Y-95.78
X110.0Y-98.32
X110.0Y-100.86
X110.0Y-103.4
X110.0Y-105.94
T5
X129.75Y-79.25
X129.75Y-83.75
X130.25Y-89.75
X130.25Y-94.25
X130.25Y-101.75
X130.25Y-106.25
X136.25Y-79.25
X136.25Y-83.75
X136.75Y-89.75
X136.75Y-94.25
X136.75Y-101.75
X136.75Y-106.25
M30
